<svg width="151" height="116" viewBox="0 0 151 116" fill="none" xmlns="http://www.w3.org/2000/svg">
<path d="M138.408 112.617C138.775 113.36 139.675 113.664 140.418 113.297C141.16 112.93 141.465 112.031 141.098 111.288L138.408 112.617ZM63.2918 13.1393L63.7947 14.5524L63.7949 14.5524L63.2918 13.1393ZM58.5819 52.2198L57.8958 50.8859L57.8958 50.886L58.5819 52.2198ZM9.73698 1.9926C9.50739 1.19662 8.67599 0.737482 7.88002 0.967085C7.08405 1.19668 6.6249 2.02807 6.85451 2.82404L9.73698 1.9926ZM110.174 101.124C109.408 100.808 108.531 101.174 108.216 101.94C107.9 102.706 108.266 103.582 109.032 103.898L110.174 101.124ZM137.884 114.152L138.458 112.766L138.455 112.765L137.884 114.152ZM142.795 110.648L144.293 110.56L144.293 110.556L142.795 110.648ZM141.756 83.3213C141.497 82.5345 140.649 82.1067 139.862 82.3659C139.075 82.6251 138.647 83.4731 138.906 84.2599L141.756 83.3213ZM139.753 111.952C141.098 111.288 141.098 111.287 141.097 111.286C141.097 111.286 141.096 111.284 141.095 111.283C141.094 111.279 141.091 111.274 141.088 111.267C141.081 111.254 141.071 111.234 141.058 111.208C141.033 111.156 140.994 111.078 140.943 110.976C140.841 110.772 140.691 110.47 140.493 110.077C140.098 109.291 139.515 108.14 138.767 106.679C137.269 103.757 135.104 99.5946 132.432 94.626C127.091 84.6915 119.719 71.5236 111.606 58.6104C103.502 45.7125 94.6189 33.0033 86.2507 24.0264C82.0716 19.5432 77.957 15.9206 74.0735 13.6833C70.2095 11.4572 66.3267 10.4666 62.7888 11.7262L63.7949 14.5524C66.1323 13.7203 69.0454 14.2488 72.5759 16.2828C76.087 18.3054 79.9656 21.6836 84.0563 26.072C92.2279 34.8381 100.991 47.3551 109.065 60.2064C117.13 73.0423 124.467 86.1464 129.79 96.0467C132.451 100.995 134.607 105.141 136.097 108.048C136.842 109.501 137.421 110.645 137.813 111.425C138.009 111.814 138.158 112.113 138.258 112.314C138.308 112.415 138.346 112.491 138.371 112.542C138.384 112.567 138.393 112.586 138.399 112.599C138.402 112.605 138.405 112.61 138.406 112.613C138.407 112.614 138.408 112.615 138.408 112.616C138.408 112.617 138.408 112.617 139.753 111.952ZM62.7889 11.7261C60.8142 12.4288 59.3607 13.6217 58.3679 15.1848C57.3927 16.7199 56.9096 18.5349 56.7171 20.4387C56.3361 24.2066 57.0647 28.7101 57.8737 32.9836C58.7031 37.3653 59.6149 41.5039 59.782 44.8811C59.9551 48.3787 59.2788 50.1746 57.8958 50.8859L59.268 53.5537C62.4332 51.9257 62.9529 48.2601 62.7784 44.7328C62.5978 41.0854 61.6183 36.636 60.8213 32.4256C60.0038 28.1069 59.3709 24.0141 59.7019 20.7405C59.8654 19.1236 60.2565 17.8066 60.9002 16.7933C61.5261 15.808 62.4358 15.036 63.7947 14.5524L62.7889 11.7261ZM57.8958 50.886C55.0159 52.3675 51.2818 52.4052 46.9728 50.8983C42.6689 49.3932 37.9298 46.3875 33.225 42.0283C23.8209 33.3149 14.7507 19.3741 9.73698 1.9926L6.85451 2.82404C12.0085 20.692 21.3532 35.1182 31.1861 44.2289C36.0998 48.7817 41.1848 52.0523 45.9824 53.7301C50.7749 55.4061 55.4198 55.5334 59.2681 53.5537L57.8958 50.886ZM109.032 103.898L137.313 115.539L138.455 112.765L110.174 101.124L109.032 103.898ZM137.311 115.538C140.768 116.968 144.512 114.279 144.293 110.56L141.298 110.736C141.388 112.258 139.858 113.345 138.458 112.766L137.311 115.538ZM144.293 110.556C144.029 106.259 143.633 100.201 143.192 94.8789C142.971 92.219 142.738 89.7314 142.504 87.7343C142.278 85.8027 142.033 84.1633 141.756 83.3213L138.906 84.2599C139.07 84.7568 139.288 86.0705 139.525 88.0837C139.753 90.0316 139.982 92.4806 140.202 95.1268C140.641 100.417 141.035 106.449 141.298 110.739L144.293 110.556Z" fill="#7F56D9"/>
</svg>
