<svg width="260" height="260" viewBox="0 0 260 260" fill="none" xmlns="http://www.w3.org/2000/svg">
<rect width="260" height="260" rx="130" fill="#F4EBFF"/>
<path fill-rule="evenodd" clip-rule="evenodd" d="M25.7197 135.063C26.7176 136.055 26.7175 137.663 25.7197 138.655L25.6686 138.706C24.6707 139.698 23.0529 139.698 22.055 138.706C21.0572 137.714 21.0572 136.106 22.055 135.114L22.1062 135.063C23.104 134.071 24.7219 134.071 25.7197 135.063Z" fill="#A4BCFD"/>
<path fill-rule="evenodd" clip-rule="evenodd" d="M37.7323 135.828C38.7284 136.822 38.7255 138.43 37.7258 139.421L30.648 146.432C29.6483 147.423 28.0305 147.42 27.0344 146.426C26.0384 145.432 26.0413 143.823 27.041 142.833L34.1188 135.822C35.1184 134.831 36.7363 134.834 37.7323 135.828Z" fill="#6172F3"/>
<path fill-rule="evenodd" clip-rule="evenodd" d="M47.3386 147.898C48.1214 146.731 49.7078 146.415 50.882 147.193L51.0353 147.295C52.2095 148.073 52.5267 149.651 51.744 150.818C50.9612 151.985 49.3747 152.301 48.2006 151.523L48.0473 151.421C46.8731 150.643 46.5558 149.065 47.3386 147.898Z" fill="#A4BCFD"/>
<path fill-rule="evenodd" clip-rule="evenodd" d="M64.2005 134.91C65.1984 135.902 65.1984 137.511 64.2005 138.503L60.7255 141.958C59.7276 142.95 58.1098 142.95 57.1119 141.958C56.1141 140.966 56.1141 139.357 57.1119 138.365L60.5869 134.91C61.5848 133.918 63.2026 133.918 64.2005 134.91Z" fill="#6172F3"/>
<path fill-rule="evenodd" clip-rule="evenodd" d="M64.2516 122.132C65.2495 123.124 65.2495 124.733 64.2516 125.725L38.5722 151.256C37.5743 152.248 35.9565 152.248 34.9586 151.256C33.9607 150.264 33.9607 148.655 34.9586 147.663L60.638 122.132C61.6359 121.14 63.2537 121.14 64.2516 122.132Z" fill="#3538CD"/>
<path fill-rule="evenodd" clip-rule="evenodd" d="M59.3967 114.282C60.3945 115.274 60.3945 116.883 59.3967 117.875L44.6278 132.558C43.63 133.551 42.0121 133.551 41.0143 132.558C40.0164 131.566 40.0164 129.958 41.0143 128.966L55.7831 114.282C56.781 113.29 58.3988 113.29 59.3967 114.282Z" fill="#3538CD"/>
<path fill-rule="evenodd" clip-rule="evenodd" d="M51.6022 109.302C52.6007 110.293 52.6018 111.902 51.6047 112.894L32.6198 131.795C31.6226 132.788 30.0047 132.789 29.0062 131.798C28.0077 130.806 28.0066 129.198 29.0038 128.205L47.9887 109.304C48.9859 108.311 50.6037 108.31 51.6022 109.302Z" fill="#3538CD"/>
<path fill-rule="evenodd" clip-rule="evenodd" d="M32.8006 115.352C33.7967 116.346 33.7939 117.955 32.7944 118.945L25.3588 126.312C24.3593 127.303 22.7414 127.3 21.7453 126.306C20.7491 125.312 20.7519 123.704 21.7515 122.713L29.187 115.346C30.1866 114.356 31.8045 114.358 32.8006 115.352Z" fill="#6172F3"/>
<path fill-rule="evenodd" clip-rule="evenodd" d="M37.353 108C38.7642 108 39.9082 109.137 39.9082 110.54V110.794C39.9082 112.197 38.7642 113.335 37.353 113.335C35.9418 113.335 34.7979 112.197 34.7979 110.794V110.54C34.7979 109.137 35.9418 108 37.353 108Z" fill="#A4BCFD"/>
<path d="M82.9997 129.469H86.9297C88.3897 129.469 89.6697 129.269 90.7697 128.869C91.8897 128.449 92.7697 127.849 93.4097 127.069C94.0697 126.289 94.3997 125.349 94.3997 124.249C94.3997 123.049 94.0697 122.059 93.4097 121.279C92.7697 120.479 91.8897 119.889 90.7697 119.509C89.6697 119.109 88.3897 118.909 86.9297 118.909H79.2197V139.909H87.4397C89.0997 139.909 90.5397 139.709 91.7597 139.309C92.9797 138.889 93.9197 138.249 94.5797 137.389C95.2597 136.529 95.5997 135.399 95.5997 133.999C95.5997 132.939 95.3597 132.039 94.8797 131.299C94.4197 130.539 93.7997 129.919 93.0197 129.439C92.2397 128.939 91.3697 128.579 90.4097 128.359C89.4497 128.139 88.4597 128.029 87.4397 128.029H82.9997V130.789H86.8697C87.3697 130.789 87.8197 130.839 88.2197 130.939C88.6397 131.019 89.0097 131.159 89.3297 131.359C89.6497 131.559 89.8997 131.819 90.0797 132.139C90.2597 132.459 90.3497 132.839 90.3497 133.279C90.3497 133.959 90.1897 134.499 89.8697 134.899C89.5697 135.279 89.1597 135.559 88.6397 135.739C88.1197 135.899 87.5297 135.979 86.8697 135.979H84.2897V122.839H86.3897C87.2697 122.839 87.9497 123.019 88.4297 123.379C88.9097 123.739 89.1497 124.279 89.1497 124.999C89.1497 125.479 89.0397 125.889 88.8197 126.229C88.5997 126.549 88.2797 126.799 87.8597 126.979C87.4597 127.159 86.9697 127.249 86.3897 127.249H82.9997V129.469Z" fill="#101828"/>
<path d="M97.5216 120.919C97.5216 121.639 97.7816 122.229 98.3016 122.689C98.8216 123.149 99.4416 123.379 100.162 123.379C100.902 123.379 101.522 123.149 102.022 122.689C102.542 122.229 102.802 121.639 102.802 120.919C102.802 120.199 102.542 119.619 102.022 119.179C101.522 118.719 100.902 118.489 100.162 118.489C99.4416 118.489 98.8216 118.719 98.3016 119.179C97.7816 119.619 97.5216 120.199 97.5216 120.919ZM97.9716 126.109V139.909H102.352V126.109H97.9716Z" fill="#101828"/>
<path d="M104.373 133.009C104.373 134.449 104.713 135.709 105.393 136.789C106.073 137.869 107.013 138.709 108.213 139.309C109.413 139.909 110.763 140.209 112.263 140.209C113.763 140.209 115.103 139.909 116.283 139.309C117.483 138.709 118.423 137.869 119.103 136.789C119.803 135.709 120.153 134.449 120.153 133.009C120.153 131.549 119.803 130.279 119.103 129.199C118.423 128.119 117.483 127.279 116.283 126.679C115.103 126.079 113.763 125.779 112.263 125.779C110.763 125.779 109.413 126.079 108.213 126.679C107.013 127.279 106.073 128.119 105.393 129.199C104.713 130.279 104.373 131.549 104.373 133.009ZM109.023 133.009C109.023 132.289 109.173 131.669 109.473 131.149C109.773 130.629 110.163 130.229 110.643 129.949C111.123 129.669 111.663 129.529 112.263 129.529C112.843 129.529 113.373 129.669 113.853 129.949C114.353 130.229 114.743 130.629 115.023 131.149C115.323 131.669 115.473 132.289 115.473 133.009C115.473 133.729 115.323 134.349 115.023 134.869C114.743 135.369 114.353 135.759 113.853 136.039C113.373 136.319 112.843 136.459 112.263 136.459C111.663 136.459 111.123 136.319 110.643 136.039C110.163 135.759 109.773 135.369 109.473 134.869C109.173 134.349 109.023 133.729 109.023 133.009Z" fill="#101828"/>
<path d="M122.728 134.899L120.838 137.899C121.458 138.379 122.128 138.819 122.848 139.219C123.568 139.599 124.348 139.899 125.188 140.119C126.048 140.359 126.978 140.479 127.978 140.479C129.618 140.479 130.888 140.109 131.788 139.369C132.708 138.609 133.168 137.489 133.168 136.009C133.168 135.149 132.978 134.459 132.598 133.939C132.238 133.419 131.748 132.989 131.128 132.649C130.528 132.309 129.868 132.009 129.148 131.749C128.468 131.489 127.888 131.279 127.408 131.119C126.948 130.939 126.588 130.749 126.328 130.549C126.088 130.349 125.968 130.099 125.968 129.799C125.968 129.539 126.068 129.329 126.268 129.169C126.488 129.009 126.808 128.929 127.228 128.929C127.848 128.929 128.528 129.109 129.268 129.469C130.008 129.809 130.668 130.249 131.248 130.789L132.868 127.849C132.328 127.449 131.748 127.099 131.128 126.799C130.528 126.499 129.878 126.259 129.178 126.079C128.498 125.899 127.758 125.809 126.958 125.809C125.958 125.809 125.068 125.959 124.288 126.259C123.528 126.559 122.918 126.999 122.458 127.579C122.018 128.159 121.798 128.869 121.798 129.709C121.798 130.589 121.988 131.309 122.368 131.869C122.748 132.429 123.228 132.879 123.808 133.219C124.408 133.539 125.038 133.819 125.698 134.059C126.438 134.279 127.018 134.489 127.438 134.689C127.878 134.889 128.188 135.099 128.368 135.319C128.548 135.519 128.638 135.769 128.638 136.069C128.638 136.389 128.528 136.649 128.308 136.849C128.088 137.049 127.748 137.149 127.288 137.149C126.968 137.149 126.588 137.089 126.148 136.969C125.708 136.829 125.198 136.599 124.618 136.279C124.058 135.939 123.428 135.479 122.728 134.899Z" fill="#101828"/>
<path d="M148.743 126.109H144.093L139.683 137.149L142.023 137.179L137.553 126.109H132.573L138.543 138.799L135.183 146.509H139.743L148.743 126.109Z" fill="#101828"/>
<path d="M158.328 131.509V139.909H163.038V131.029C163.038 129.369 162.648 128.079 161.868 127.159C161.088 126.239 159.838 125.779 158.118 125.779C157.098 125.779 156.238 125.989 155.538 126.409C154.858 126.829 154.318 127.419 153.918 128.179V126.109H149.358V139.909H153.918V131.509C153.918 130.969 154.018 130.509 154.218 130.129C154.418 129.749 154.698 129.459 155.058 129.259C155.418 129.059 155.838 128.959 156.318 128.959C157.038 128.959 157.548 129.179 157.848 129.619C158.168 130.059 158.328 130.689 158.328 131.509Z" fill="#101828"/>
<path d="M164.093 126.109V129.859H173.333V126.109H164.093ZM166.523 121.309V139.909H170.873V121.309H166.523Z" fill="#101828"/>
<path d="M178.924 116.509H174.364V139.909H178.924V116.509ZM183.334 131.509V139.909H187.864V130.849C187.864 129.709 187.704 128.749 187.384 127.969C187.064 127.189 186.554 126.599 185.854 126.199C185.174 125.799 184.264 125.599 183.124 125.599C181.984 125.599 181.044 125.869 180.304 126.409C179.584 126.929 179.044 127.639 178.684 128.539C178.324 129.419 178.144 130.409 178.144 131.509H178.924C178.924 130.969 179.024 130.519 179.224 130.159C179.424 129.779 179.704 129.489 180.064 129.289C180.424 129.069 180.844 128.959 181.324 128.959C182.064 128.959 182.584 129.179 182.884 129.619C183.184 130.059 183.334 130.689 183.334 131.509Z" fill="#101828"/>
<path d="M197.564 140.209C199.324 140.209 200.814 139.869 202.034 139.189C203.274 138.509 204.254 137.489 204.974 136.129L200.924 135.139C200.584 135.739 200.124 136.189 199.544 136.489C198.984 136.789 198.304 136.939 197.504 136.939C196.804 136.939 196.214 136.789 195.734 136.489C195.254 136.169 194.894 135.709 194.654 135.109C194.414 134.509 194.294 133.789 194.294 132.949C194.314 132.029 194.434 131.269 194.654 130.669C194.894 130.049 195.244 129.589 195.704 129.289C196.164 128.989 196.734 128.839 197.414 128.839C197.954 128.839 198.424 128.959 198.824 129.199C199.224 129.439 199.534 129.779 199.754 130.219C199.974 130.659 200.084 131.179 200.084 131.779C200.084 131.919 200.044 132.099 199.964 132.319C199.904 132.519 199.824 132.689 199.724 132.829L200.804 131.449H192.284V133.969H204.884C204.924 133.829 204.944 133.659 204.944 133.459C204.944 133.239 204.944 133.019 204.944 132.799C204.944 131.319 204.654 130.059 204.074 129.019C203.494 127.979 202.654 127.189 201.554 126.649C200.454 126.089 199.104 125.809 197.504 125.809C195.904 125.809 194.514 126.099 193.334 126.679C192.174 127.259 191.284 128.089 190.664 129.169C190.044 130.249 189.734 131.529 189.734 133.009C189.734 134.469 190.054 135.739 190.694 136.819C191.334 137.899 192.234 138.739 193.394 139.339C194.574 139.919 195.964 140.209 197.564 140.209Z" fill="#101828"/>
<path d="M207.592 134.899L205.702 137.899C206.322 138.379 206.992 138.819 207.712 139.219C208.432 139.599 209.212 139.899 210.052 140.119C210.912 140.359 211.842 140.479 212.842 140.479C214.482 140.479 215.752 140.109 216.652 139.369C217.572 138.609 218.032 137.489 218.032 136.009C218.032 135.149 217.842 134.459 217.462 133.939C217.102 133.419 216.612 132.989 215.992 132.649C215.392 132.309 214.732 132.009 214.012 131.749C213.332 131.489 212.752 131.279 212.272 131.119C211.812 130.939 211.452 130.749 211.192 130.549C210.952 130.349 210.832 130.099 210.832 129.799C210.832 129.539 210.932 129.329 211.132 129.169C211.352 129.009 211.672 128.929 212.092 128.929C212.712 128.929 213.392 129.109 214.132 129.469C214.872 129.809 215.532 130.249 216.112 130.789L217.732 127.849C217.192 127.449 216.612 127.099 215.992 126.799C215.392 126.499 214.742 126.259 214.042 126.079C213.362 125.899 212.622 125.809 211.822 125.809C210.822 125.809 209.932 125.959 209.152 126.259C208.392 126.559 207.782 126.999 207.322 127.579C206.882 128.159 206.662 128.869 206.662 129.709C206.662 130.589 206.852 131.309 207.232 131.869C207.612 132.429 208.092 132.879 208.672 133.219C209.272 133.539 209.902 133.819 210.562 134.059C211.302 134.279 211.882 134.489 212.302 134.689C212.742 134.889 213.052 135.099 213.232 135.319C213.412 135.519 213.502 135.769 213.502 136.069C213.502 136.389 213.392 136.649 213.172 136.849C212.952 137.049 212.612 137.149 212.152 137.149C211.832 137.149 211.452 137.089 211.012 136.969C210.572 136.829 210.062 136.599 209.482 136.279C208.922 135.939 208.292 135.479 207.592 134.899Z" fill="#101828"/>
<path d="M219.353 120.919C219.353 121.639 219.613 122.229 220.133 122.689C220.653 123.149 221.273 123.379 221.993 123.379C222.733 123.379 223.353 123.149 223.853 122.689C224.373 122.229 224.633 121.639 224.633 120.919C224.633 120.199 224.373 119.619 223.853 119.179C223.353 118.719 222.733 118.489 221.993 118.489C221.273 118.489 220.653 118.719 220.133 119.179C219.613 119.619 219.353 120.199 219.353 120.919ZM219.803 126.109V139.909H224.183V126.109H219.803Z" fill="#101828"/>
<path d="M227.764 134.899L225.874 137.899C226.494 138.379 227.164 138.819 227.884 139.219C228.604 139.599 229.384 139.899 230.224 140.119C231.084 140.359 232.014 140.479 233.014 140.479C234.654 140.479 235.924 140.109 236.824 139.369C237.744 138.609 238.204 137.489 238.204 136.009C238.204 135.149 238.014 134.459 237.634 133.939C237.274 133.419 236.784 132.989 236.164 132.649C235.564 132.309 234.904 132.009 234.184 131.749C233.504 131.489 232.924 131.279 232.444 131.119C231.984 130.939 231.624 130.749 231.364 130.549C231.124 130.349 231.004 130.099 231.004 129.799C231.004 129.539 231.104 129.329 231.304 129.169C231.524 129.009 231.844 128.929 232.264 128.929C232.884 128.929 233.564 129.109 234.304 129.469C235.044 129.809 235.704 130.249 236.284 130.789L237.904 127.849C237.364 127.449 236.784 127.099 236.164 126.799C235.564 126.499 234.914 126.259 234.214 126.079C233.534 125.899 232.794 125.809 231.994 125.809C230.994 125.809 230.104 125.959 229.324 126.259C228.564 126.559 227.954 126.999 227.494 127.579C227.054 128.159 226.834 128.869 226.834 129.709C226.834 130.589 227.024 131.309 227.404 131.869C227.784 132.429 228.264 132.879 228.844 133.219C229.444 133.539 230.074 133.819 230.734 134.059C231.474 134.279 232.054 134.489 232.474 134.689C232.914 134.889 233.224 135.099 233.404 135.319C233.584 135.519 233.674 135.769 233.674 136.069C233.674 136.389 233.564 136.649 233.344 136.849C233.124 137.049 232.784 137.149 232.324 137.149C232.004 137.149 231.624 137.089 231.184 136.969C230.744 136.829 230.234 136.599 229.654 136.279C229.094 135.939 228.464 135.479 227.764 134.899Z" fill="#101828"/>
</svg>
