<svg width="153" height="54" viewBox="0 0 153 54" fill="none" xmlns="http://www.w3.org/2000/svg">
<path d="M68.8714 3.81818V14H67.2308L62.4332 7.06463H62.3487V14H60.5043V3.81818H62.1548L66.9474 10.7585H67.0369V3.81818H68.8714ZM74.1824 14.1491C73.4167 14.1491 72.7555 13.9901 72.1987 13.6719C71.6452 13.3504 71.2193 12.8963 70.921 12.3097C70.6227 11.7197 70.4735 11.0253 70.4735 10.2266C70.4735 9.44105 70.6227 8.75166 70.921 8.15838C71.2226 7.56179 71.6435 7.09777 72.1838 6.76633C72.724 6.43158 73.3587 6.2642 74.0879 6.2642C74.5585 6.2642 75.0027 6.34044 75.4203 6.4929C75.8412 6.64205 76.2124 6.87405 76.5339 7.18892C76.8587 7.50379 77.1139 7.90483 77.2995 8.39205C77.4851 8.87595 77.5779 9.45265 77.5779 10.1222V10.674H71.3187V9.46094H75.8528C75.8495 9.11624 75.7749 8.80966 75.6291 8.54119C75.4833 8.26941 75.2794 8.05563 75.0176 7.89986C74.7591 7.74408 74.4574 7.66619 74.1127 7.66619C73.7449 7.66619 73.4217 7.75568 73.1433 7.93466C72.8649 8.11032 72.6478 8.34233 72.492 8.63068C72.3395 8.91572 72.2617 9.22893 72.2583 9.57031V10.6293C72.2583 11.0734 72.3395 11.4545 72.502 11.7727C72.6644 12.0876 72.8914 12.3295 73.1831 12.4986C73.4747 12.6643 73.8161 12.7472 74.2072 12.7472C74.469 12.7472 74.706 12.7107 74.9181 12.6378C75.1303 12.5616 75.3142 12.4505 75.47 12.3047C75.6258 12.1589 75.7434 11.9782 75.823 11.7628L77.5034 11.9517C77.3973 12.3958 77.1951 12.7836 76.8968 13.1151C76.6019 13.4432 76.224 13.6984 75.7633 13.8807C75.3026 14.0597 74.7756 14.1491 74.1824 14.1491ZM80.6355 14L78.4778 6.36364H80.3123L81.6547 11.733H81.7243L83.0964 6.36364H84.911L86.2832 11.7031H86.3578L87.6802 6.36364H89.5197L87.3571 14H85.4828L84.051 8.83949H83.9466L82.5147 14H80.6355ZM96.4464 14.1541C95.9625 14.1541 95.5266 14.0679 95.1388 13.8956C94.7544 13.7199 94.4495 13.4614 94.2241 13.12C94.002 12.7786 93.891 12.3577 93.891 11.8572C93.891 11.4264 93.9705 11.0701 94.1296 10.7884C94.2887 10.5066 94.5058 10.2812 94.7809 10.1122C95.056 9.94318 95.3659 9.81558 95.7106 9.7294C96.0586 9.63991 96.4182 9.57528 96.7894 9.53551C97.2369 9.48911 97.5998 9.44768 97.8782 9.41122C98.1566 9.37145 98.3588 9.31179 98.4847 9.23224C98.614 9.14938 98.6786 9.02178 98.6786 8.84943V8.8196C98.6786 8.44508 98.5676 8.15507 98.3455 7.94957C98.1235 7.74408 97.8036 7.64134 97.386 7.64134C96.9452 7.64134 96.5955 7.73745 96.337 7.92969C96.0818 8.12192 95.9094 8.34896 95.82 8.6108L94.1396 8.37216C94.2721 7.90814 94.4909 7.52036 94.7958 7.20881C95.1007 6.89394 95.4736 6.65862 95.9144 6.50284C96.3552 6.34375 96.8424 6.2642 97.3761 6.2642C97.744 6.2642 98.1102 6.30729 98.4748 6.39347C98.8394 6.47964 99.1725 6.62216 99.4741 6.82102C99.7757 7.01657 100.018 7.28338 100.2 7.62145C100.386 7.95952 100.478 8.3821 100.478 8.8892V14H98.7482V12.951H98.6886C98.5792 13.1631 98.4251 13.362 98.2262 13.5476C98.0307 13.7299 97.7837 13.8774 97.4854 13.9901C97.1905 14.0994 96.8441 14.1541 96.4464 14.1541ZM96.9137 12.8317C97.275 12.8317 97.5882 12.7604 97.8533 12.6179C98.1185 12.4721 98.3223 12.2798 98.4648 12.0412C98.6107 11.8026 98.6836 11.5424 98.6836 11.2607V10.3608C98.6272 10.4072 98.5311 10.4503 98.3952 10.4901C98.2627 10.5298 98.1135 10.5646 97.9478 10.5945C97.7821 10.6243 97.618 10.6508 97.4556 10.674C97.2932 10.6972 97.1523 10.7171 97.033 10.7337C96.7646 10.7701 96.5243 10.8298 96.3121 10.9126C96.1 10.9955 95.9326 11.1115 95.81 11.2607C95.6874 11.4065 95.6261 11.5954 95.6261 11.8274C95.6261 12.1589 95.747 12.4091 95.989 12.5781C96.2309 12.7472 96.5392 12.8317 96.9137 12.8317ZM102.288 14V6.36364H104.033V7.63636H104.113C104.252 7.19555 104.49 6.85582 104.828 6.61719C105.17 6.37524 105.559 6.25426 105.997 6.25426C106.096 6.25426 106.207 6.25923 106.33 6.26918C106.456 6.2758 106.56 6.2874 106.643 6.30398V7.95952C106.567 7.933 106.446 7.9098 106.28 7.88991C106.118 7.86671 105.96 7.85511 105.808 7.85511C105.48 7.85511 105.185 7.92637 104.923 8.06889C104.664 8.2081 104.461 8.40199 104.311 8.65057C104.162 8.89915 104.088 9.18584 104.088 9.51065V14H102.288ZM107.839 14V6.36364H109.584V7.63636H109.663C109.803 7.19555 110.041 6.85582 110.379 6.61719C110.721 6.37524 111.11 6.25426 111.548 6.25426C111.647 6.25426 111.758 6.25923 111.881 6.26918C112.007 6.2758 112.111 6.2874 112.194 6.30398V7.95952C112.118 7.933 111.997 7.9098 111.831 7.88991C111.669 7.86671 111.511 7.85511 111.359 7.85511C111.031 7.85511 110.736 7.92637 110.474 8.06889C110.215 8.2081 110.011 8.40199 109.862 8.65057C109.713 8.89915 109.638 9.18584 109.638 9.51065V14H107.839ZM113.39 14V6.36364H115.189V14H113.39ZM114.294 5.27983C114.009 5.27983 113.764 5.18537 113.559 4.99645C113.353 4.80421 113.25 4.57386 113.25 4.3054C113.25 4.03362 113.353 3.80327 113.559 3.61435C113.764 3.42211 114.009 3.32599 114.294 3.32599C114.583 3.32599 114.828 3.42211 115.03 3.61435C115.236 3.80327 115.338 4.03362 115.338 4.3054C115.338 4.57386 115.236 4.80421 115.03 4.99645C114.828 5.18537 114.583 5.27983 114.294 5.27983ZM118.616 14L116.458 6.36364H118.293L119.635 11.733H119.705L121.077 6.36364H122.892L124.264 11.7031H124.338L125.661 6.36364H127.5L125.338 14H123.463L122.031 8.83949H121.927L120.495 14H118.616ZM130.954 14.1541C130.47 14.1541 130.034 14.0679 129.647 13.8956C129.262 13.7199 128.957 13.4614 128.732 13.12C128.51 12.7786 128.399 12.3577 128.399 11.8572C128.399 11.4264 128.478 11.0701 128.637 10.7884C128.797 10.5066 129.014 10.2812 129.289 10.1122C129.564 9.94318 129.874 9.81558 130.218 9.7294C130.566 9.63991 130.926 9.57528 131.297 9.53551C131.745 9.48911 132.108 9.44768 132.386 9.41122C132.664 9.37145 132.867 9.31179 132.993 9.23224C133.122 9.14938 133.186 9.02178 133.186 8.84943V8.8196C133.186 8.44508 133.075 8.15507 132.853 7.94957C132.631 7.74408 132.311 7.64134 131.894 7.64134C131.453 7.64134 131.103 7.73745 130.845 7.92969C130.59 8.12192 130.417 8.34896 130.328 8.6108L128.647 8.37216C128.78 7.90814 128.999 7.52036 129.304 7.20881C129.609 6.89394 129.981 6.65862 130.422 6.50284C130.863 6.34375 131.35 6.2642 131.884 6.2642C132.252 6.2642 132.618 6.30729 132.983 6.39347C133.347 6.47964 133.68 6.62216 133.982 6.82102C134.283 7.01657 134.525 7.28338 134.708 7.62145C134.893 7.95952 134.986 8.3821 134.986 8.8892V14H133.256V12.951H133.196C133.087 13.1631 132.933 13.362 132.734 13.5476C132.538 13.7299 132.292 13.8774 131.993 13.9901C131.698 14.0994 131.352 14.1541 130.954 14.1541ZM131.422 12.8317C131.783 12.8317 132.096 12.7604 132.361 12.6179C132.626 12.4721 132.83 12.2798 132.973 12.0412C133.118 11.8026 133.191 11.5424 133.191 11.2607V10.3608C133.135 10.4072 133.039 10.4503 132.903 10.4901C132.77 10.5298 132.621 10.5646 132.456 10.5945C132.29 10.6243 132.126 10.6508 131.963 10.674C131.801 10.6972 131.66 10.7171 131.541 10.7337C131.272 10.7701 131.032 10.8298 130.82 10.9126C130.608 10.9955 130.44 11.1115 130.318 11.2607C130.195 11.4065 130.134 11.5954 130.134 11.8274C130.134 12.1589 130.255 12.4091 130.497 12.5781C130.739 12.7472 131.047 12.8317 131.422 12.8317ZM138.596 3.81818V14H136.796V3.81818H138.596ZM142.649 3.81818L142.485 11.0071H140.884L140.725 3.81818H142.649ZM141.684 14.1094C141.383 14.1094 141.124 14.0033 140.909 13.7912C140.696 13.5791 140.59 13.3205 140.59 13.0156C140.59 12.7173 140.696 12.4621 140.909 12.25C141.124 12.0379 141.383 11.9318 141.684 11.9318C141.979 11.9318 142.234 12.0379 142.45 12.25C142.669 12.4621 142.778 12.7173 142.778 13.0156C142.778 13.2178 142.727 13.4018 142.624 13.5675C142.524 13.7332 142.392 13.8658 142.226 13.9652C142.064 14.0613 141.883 14.1094 141.684 14.1094Z" fill="#FF8126"/>
<path d="M9.22032 50.4485C9.06297 51.2619 9.59476 52.0488 10.4081 52.2061C11.2215 52.3635 12.0084 51.8317 12.1657 51.0184L9.22032 50.4485ZM50.5838 11.7912C51.4048 11.6802 51.9804 10.9247 51.8694 10.1038C51.7584 9.28282 51.0029 8.70727 50.182 8.81824L50.5838 11.7912ZM4.78701 40.3308C4.36014 39.6208 3.43853 39.3913 2.72855 39.8182C2.01857 40.2451 1.78907 41.1667 2.21594 41.8766L4.78701 40.3308ZM8.97646 50.2098L7.69093 50.9828L7.69165 50.984L8.97646 50.2098ZM12.593 51.2606L11.98 49.8916L11.9788 49.8921L12.593 51.2606ZM23.5121 48.0155C24.2682 47.677 24.6067 46.7897 24.2682 46.0336C23.9297 45.2774 23.0423 44.9389 22.2862 45.2774L23.5121 48.0155ZM10.693 50.7334C12.1657 51.0184 12.1656 51.0187 12.1656 51.019C12.1656 51.0189 12.1656 51.0192 12.1656 51.0192C12.1656 51.0192 12.1656 51.0189 12.1657 51.0184C12.1659 51.0173 12.1663 51.0152 12.1669 51.012C12.1682 51.0058 12.1703 50.9953 12.1732 50.9808C12.1791 50.9517 12.1884 50.9064 12.2013 50.8456C12.2272 50.7239 12.2673 50.5403 12.3231 50.3008C12.4347 49.8216 12.6086 49.1193 12.8549 48.2421C13.3479 46.4863 14.1289 44.0371 15.2771 41.2782C17.583 35.7375 21.3233 29.0615 27.0835 24.2002L25.1487 21.9076C18.876 27.2013 14.9048 34.3651 12.5074 40.1255C11.3039 43.0171 10.4853 45.5837 9.9666 47.4311C9.70706 48.3554 9.5221 49.1015 9.40127 49.6204C9.34085 49.8799 9.29643 50.0827 9.26671 50.2227C9.25185 50.2927 9.24066 50.3471 9.23298 50.385C9.22915 50.4039 9.22618 50.4187 9.22408 50.4294C9.22303 50.4347 9.22219 50.4389 9.22156 50.4421C9.22125 50.4437 9.22099 50.4451 9.22078 50.4461C9.22068 50.4467 9.22056 50.4473 9.22051 50.4475C9.22041 50.4481 9.22032 50.4485 10.693 50.7334ZM27.0835 24.2002C38.8961 14.2311 48.2846 12.102 50.5838 11.7912L50.182 8.81824C47.3234 9.20465 37.4018 11.5666 25.1487 21.9076L27.0835 24.2002ZM2.21594 41.8766L7.69093 50.9828L10.262 49.4369L4.78701 40.3308L2.21594 41.8766ZM7.69165 50.984C8.83391 52.8798 11.2202 53.5209 13.2071 52.6291L11.9788 49.8921C11.2777 50.2068 10.5659 49.9412 10.2613 49.4357L7.69165 50.984ZM13.2059 52.6297L23.5121 48.0155L22.2862 45.2774L11.98 49.8916L13.2059 52.6297Z" fill="#FF8126"/>
</svg>
