<svg width="260" height="260" viewBox="0 0 260 260" fill="none" xmlns="http://www.w3.org/2000/svg">
<rect width="260" height="260" rx="130" fill="#F4EBFF"/>
<path d="M52.9589 132C52.4508 125.84 47.2907 121 41 121C34.3726 121 29 126.373 29 133C29 139.627 34.3726 145 41 145H59V132H52.9589Z" fill="#528BFF"/>
<circle cx="58" cy="130" r="15" fill="#7839EE"/>
<path d="M81.896 130.2C81.896 128.203 82.2787 126.457 83.044 124.964C83.828 123.452 84.9387 122.285 86.376 121.464C87.832 120.643 89.54 120.232 91.5 120.232C93.0307 120.232 94.4027 120.531 95.616 121.128C96.8293 121.725 97.8093 122.565 98.556 123.648C99.3027 124.731 99.7507 125.981 99.9 127.4H95.7C95.4573 126.28 94.944 125.403 94.16 124.768C93.3947 124.115 92.4333 123.788 91.276 123.788C89.708 123.788 88.4667 124.376 87.552 125.552C86.6373 126.728 86.18 128.277 86.18 130.2C86.18 132.104 86.6373 133.653 87.552 134.848C88.4667 136.024 89.708 136.612 91.276 136.612C92.4333 136.612 93.3947 136.295 94.16 135.66C94.944 135.007 95.4573 134.12 95.7 133H99.9C99.7507 134.419 99.3027 135.669 98.556 136.752C97.8093 137.835 96.8293 138.675 95.616 139.272C94.4027 139.869 93.0307 140.168 91.5 140.168C89.54 140.168 87.832 139.757 86.376 138.936C84.9387 138.115 83.828 136.957 83.044 135.464C82.2787 133.952 81.896 132.197 81.896 130.2Z" fill="#101828"/>
<path d="M100.912 120.4H104.86V140H100.912V120.4Z" fill="#101828"/>
<path d="M113.519 140.168C112.007 140.168 110.673 139.869 109.515 139.272C108.377 138.656 107.49 137.788 106.855 136.668C106.239 135.548 105.931 134.26 105.931 132.804C105.931 131.348 106.239 130.06 106.855 128.94C107.49 127.82 108.377 126.961 109.515 126.364C110.673 125.748 112.007 125.44 113.519 125.44C115.031 125.44 116.357 125.748 117.495 126.364C118.653 126.961 119.539 127.82 120.155 128.94C120.79 130.06 121.107 131.348 121.107 132.804C121.107 134.279 120.79 135.576 120.155 136.696C119.539 137.797 118.653 138.656 117.495 139.272C116.357 139.869 115.031 140.168 113.519 140.168ZM113.519 136.948C114.621 136.948 115.489 136.565 116.123 135.8C116.777 135.035 117.103 134.036 117.103 132.804C117.103 131.572 116.777 130.573 116.123 129.808C115.489 129.043 114.621 128.66 113.519 128.66C112.437 128.66 111.569 129.043 110.915 129.808C110.281 130.573 109.963 131.572 109.963 132.804C109.963 134.036 110.281 135.035 110.915 135.8C111.569 136.565 112.437 136.948 113.519 136.948Z" fill="#101828"/>
<path d="M135.712 125.608V140H132.212L131.848 138.264C131.344 138.861 130.756 139.328 130.084 139.664C129.412 140 128.591 140.168 127.62 140.168C125.94 140.168 124.568 139.655 123.504 138.628C122.44 137.583 121.908 135.847 121.908 133.42V125.608H125.856V132.944C125.856 134.251 126.08 135.24 126.528 135.912C126.995 136.565 127.704 136.892 128.656 136.892C129.646 136.892 130.411 136.528 130.952 135.8C131.494 135.053 131.764 134.017 131.764 132.692V125.608H135.712Z" fill="#101828"/>
<path d="M151.729 120.4V140H148.285L147.893 138.012C146.792 139.449 145.299 140.168 143.413 140.168C142.144 140.168 141.005 139.869 139.997 139.272C138.989 138.656 138.196 137.788 137.617 136.668C137.057 135.548 136.777 134.251 136.777 132.776C136.777 131.32 137.057 130.041 137.617 128.94C138.196 127.82 138.989 126.961 139.997 126.364C141.024 125.748 142.172 125.44 143.441 125.44C145.308 125.44 146.755 126.093 147.781 127.4V120.4H151.729ZM144.337 136.948C145.401 136.948 146.251 136.575 146.885 135.828C147.52 135.063 147.837 134.064 147.837 132.832C147.837 131.581 147.52 130.573 146.885 129.808C146.251 129.043 145.401 128.66 144.337 128.66C143.273 128.66 142.415 129.043 141.761 129.808C141.127 130.573 140.809 131.572 140.809 132.804C140.809 134.036 141.127 135.035 141.761 135.8C142.415 136.565 143.273 136.948 144.337 136.948Z" fill="#101828"/>
<path d="M152.242 120.4L156.582 120.372L160.194 134.708L164.03 120.4H167.81L171.534 134.708L175.23 120.4H179.486L174.054 140H169.21L165.822 126.98L162.518 140H157.674L152.242 120.4Z" fill="#101828"/>
<path d="M192.66 136.668V140H190.644C188.833 140 187.947 139.216 187.984 137.648C187.461 138.469 186.817 139.095 186.052 139.524C185.286 139.953 184.363 140.168 183.28 140.168C181.675 140.168 180.377 139.804 179.388 139.076C178.417 138.329 177.932 137.284 177.932 135.94C177.932 134.409 178.492 133.233 179.612 132.412C180.75 131.572 182.393 131.152 184.54 131.152H187.396V130.452C187.396 129.799 187.153 129.285 186.668 128.912C186.183 128.52 185.529 128.324 184.708 128.324C183.98 128.324 183.382 128.483 182.916 128.8C182.449 129.117 182.169 129.547 182.076 130.088H178.268C178.399 128.613 179.052 127.475 180.228 126.672C181.404 125.851 182.963 125.44 184.904 125.44C186.939 125.44 188.507 125.888 189.608 126.784C190.728 127.68 191.288 128.977 191.288 130.676V135.744C191.288 136.099 191.363 136.341 191.512 136.472C191.661 136.603 191.895 136.668 192.212 136.668H192.66ZM187.396 133.784H184.512C183.69 133.784 183.047 133.952 182.58 134.288C182.132 134.605 181.908 135.063 181.908 135.66C181.908 136.164 182.094 136.565 182.468 136.864C182.86 137.163 183.382 137.312 184.036 137.312C185.062 137.312 185.874 137.023 186.472 136.444C187.069 135.847 187.377 135.053 187.396 134.064V133.784Z" fill="#101828"/>
<path d="M193.991 128.94H191.611V125.608H193.991V121.576H197.939V125.608H201.215V128.94H197.939V135.24C197.939 135.744 198.042 136.108 198.247 136.332C198.471 136.556 198.835 136.668 199.339 136.668H201.383V140H198.107C195.363 140 193.991 138.628 193.991 135.884V128.94Z" fill="#101828"/>
<path d="M215.541 134.54C215.28 136.295 214.533 137.676 213.301 138.684C212.088 139.673 210.51 140.168 208.569 140.168C207.076 140.168 205.769 139.869 204.649 139.272C203.529 138.656 202.661 137.788 202.045 136.668C201.448 135.548 201.149 134.26 201.149 132.804C201.149 131.329 201.448 130.041 202.045 128.94C202.661 127.82 203.529 126.961 204.649 126.364C205.788 125.748 207.104 125.44 208.597 125.44C210.52 125.44 212.088 125.935 213.301 126.924C214.514 127.895 215.261 129.248 215.541 130.984H211.453C211.285 130.275 210.949 129.715 210.445 129.304C209.941 128.875 209.316 128.66 208.569 128.66C207.542 128.66 206.721 129.043 206.105 129.808C205.489 130.573 205.181 131.572 205.181 132.804C205.181 134.036 205.489 135.035 206.105 135.8C206.721 136.565 207.542 136.948 208.569 136.948C209.334 136.948 209.969 136.733 210.473 136.304C210.996 135.875 211.332 135.287 211.481 134.54H215.541Z" fill="#101828"/>
<path d="M224.762 125.44C226.46 125.44 227.851 125.963 228.934 127.008C230.035 128.053 230.586 129.78 230.586 132.188V140H226.638V132.356C226.638 131.161 226.395 130.256 225.91 129.64C225.424 129.005 224.696 128.688 223.726 128.688C222.718 128.688 221.924 129.033 221.346 129.724C220.786 130.415 220.506 131.376 220.506 132.608V140H216.558V120.4H220.506V127.372C221.57 126.084 222.988 125.44 224.762 125.44Z" fill="#101828"/>
</svg>
