<svg width="96" height="90" viewBox="0 0 96 90" fill="none" xmlns="http://www.w3.org/2000/svg">
<path fill-rule="evenodd" clip-rule="evenodd" d="M73.3164 29.849C76.5286 31.5382 78.3752 34.4099 80.1273 37.486C85.8699 47.5822 84.3409 58.4219 74.1423 65.0543C58.3018 75.3281 32.6284 74.9772 18.1457 62.9683C14.9361 60.3134 10.3801 57.1752 8.93096 50.7854C7.582 44.8435 10.1306 39.699 13.9065 35.5909C17.767 31.3738 22.9077 28.2263 26.6783 26.4186C43.1515 18.5418 69.6885 16.7285 86.0118 31.696C86.351 31.9958 86.8384 31.9752 87.1209 31.6594C87.4034 31.3436 87.3887 30.8581 87.0776 30.5713C70.2743 15.1656 42.9473 16.916 25.9928 25.0219C21.2977 27.279 14.5463 31.5489 10.5092 37.3296C7.75946 41.285 6.25893 45.9339 7.41347 51.115C8.94549 57.9161 13.7496 61.33 17.1552 64.1515C32.1057 76.5513 58.6381 76.9626 74.9797 66.3433C85.9515 59.2194 87.6456 47.5802 81.4685 36.726C79.5928 33.4003 77.5337 30.3236 74.0467 28.4904C73.6622 28.2885 73.1876 28.4296 73.0093 28.8153C72.8029 29.188 72.96 29.6601 73.3164 29.849Z" fill="#7F56D9"/>
</svg>
