<svg width="738" height="161" viewBox="0 0 738 161" fill="none" xmlns="http://www.w3.org/2000/svg">
<path d="M31.0429 17.0312C30.8043 14.7983 29.7986 13.0597 28.0259 11.8153C26.2702 10.571 23.9861 9.94886 21.1736 9.94886C19.1963 9.94886 17.5003 10.2472 16.0856 10.8438C14.6708 11.4403 13.5884 12.25 12.8384 13.2727C12.0884 14.2955 11.7049 15.4631 11.6878 16.7756C11.6878 17.8665 11.935 18.8125 12.4293 19.6136C12.9407 20.4148 13.631 21.0966 14.5003 21.6591C15.3696 22.2045 16.3327 22.6648 17.3895 23.0398C18.4463 23.4148 19.5117 23.7301 20.5856 23.9858L25.4946 25.2131C27.4719 25.6733 29.3725 26.2955 31.1963 27.0795C33.0373 27.8636 34.6821 28.8523 36.131 30.0455C37.5969 31.2386 38.756 32.679 39.6083 34.3665C40.4605 36.054 40.8867 38.0312 40.8867 40.2983C40.8867 43.3665 40.1026 46.0682 38.5344 48.4034C36.9662 50.7216 34.6992 52.5369 31.7333 53.8494C28.7844 55.1449 25.2134 55.7926 21.0202 55.7926C16.9463 55.7926 13.4094 55.1619 10.4094 53.9006C7.42646 52.6392 5.09123 50.7983 3.40373 48.3778C1.73328 45.9574 0.829867 43.0085 0.693504 39.5312H10.0259C10.1623 41.3551 10.7248 42.8722 11.7134 44.0824C12.702 45.2926 13.989 46.196 15.5742 46.7926C17.1765 47.3892 18.9662 47.6875 20.9435 47.6875C23.006 47.6875 24.8128 47.3807 26.364 46.767C27.9321 46.1364 29.1594 45.267 30.0458 44.1591C30.9321 43.0341 31.3838 41.7216 31.4009 40.2216C31.3838 38.858 30.9833 37.733 30.1992 36.8466C29.4151 35.9432 28.3157 35.1932 26.9009 34.5966C25.5032 33.983 23.8668 33.4375 21.9918 32.9602L16.0344 31.4261C11.7219 30.3182 8.31282 28.6392 5.80714 26.3892C3.3185 24.1222 2.07419 21.1136 2.07419 17.3636C2.07419 14.2784 2.90941 11.5767 4.57987 9.25852C6.26737 6.94034 8.55998 5.14204 11.4577 3.86363C14.3554 2.56818 17.6367 1.92045 21.3015 1.92045C25.0174 1.92045 28.2731 2.56818 31.0685 3.86363C33.881 5.14204 36.0884 6.92329 37.6907 9.20738C39.2929 11.4744 40.1196 14.0824 40.1708 17.0312H31.0429ZM47.4943 55V15.7273H56.75V55H47.4943ZM52.1477 10.1534C50.6818 10.1534 49.4204 9.66761 48.3636 8.69602C47.3068 7.70738 46.7784 6.52272 46.7784 5.14204C46.7784 3.74432 47.3068 2.55966 48.3636 1.58806C49.4204 0.59943 50.6818 0.105112 52.1477 0.105112C53.6306 0.105112 54.892 0.59943 55.9318 1.58806C56.9886 2.55966 57.517 3.74432 57.517 5.14204C57.517 6.52272 56.9886 7.70738 55.9318 8.69602C54.892 9.66761 53.6306 10.1534 52.1477 10.1534ZM64.8277 55V15.7273H73.6743V22.4006H74.1345C74.9527 20.1506 76.3078 18.3949 78.1999 17.1335C80.0919 15.8551 82.3504 15.2159 84.9754 15.2159C87.6345 15.2159 89.876 15.8636 91.6999 17.1591C93.5408 18.4375 94.8362 20.1847 95.5862 22.4006H95.9953C96.8646 20.2187 98.3305 18.4801 100.393 17.1847C102.473 15.8722 104.936 15.2159 107.782 15.2159C111.396 15.2159 114.345 16.358 116.629 18.642C118.913 20.9261 120.055 24.2585 120.055 28.6392V55H110.774V30.071C110.774 27.6335 110.126 25.8523 108.831 24.7273C107.535 23.5852 105.95 23.0142 104.075 23.0142C101.842 23.0142 100.095 23.7131 98.8334 25.1108C97.5891 26.4915 96.9669 28.2898 96.9669 30.5057V55H87.8902V29.6875C87.8902 27.6591 87.2766 26.0398 86.0493 24.8295C84.8391 23.6193 83.2538 23.0142 81.2936 23.0142C79.9641 23.0142 78.7538 23.3551 77.6629 24.0369C76.572 24.7017 75.7027 25.6477 75.055 26.875C74.4072 28.0852 74.0834 29.5 74.0834 31.1193V55H64.8277ZM128.005 69.7273V15.7273H137.107V22.2216H137.644C138.121 21.267 138.795 20.2528 139.664 19.179C140.533 18.0881 141.709 17.1591 143.192 16.392C144.675 15.608 146.567 15.2159 148.869 15.2159C151.903 15.2159 154.638 15.9915 157.076 17.5426C159.53 19.0767 161.474 21.3523 162.905 24.3693C164.354 27.3693 165.079 31.0511 165.079 35.4148C165.079 39.7273 164.371 43.392 162.957 46.4091C161.542 49.4261 159.616 51.7273 157.178 53.3125C154.741 54.8977 151.979 55.6903 148.894 55.6903C146.644 55.6903 144.778 55.3153 143.295 54.5653C141.812 53.8153 140.619 52.9119 139.715 51.8551C138.829 50.7812 138.138 49.767 137.644 48.8125H137.261V69.7273H128.005ZM137.082 35.3636C137.082 37.9034 137.44 40.1278 138.155 42.0369C138.888 43.946 139.937 45.4375 141.3 46.5114C142.681 47.5682 144.351 48.0966 146.312 48.0966C148.357 48.0966 150.07 47.5511 151.451 46.4602C152.832 45.3523 153.871 43.8437 154.57 41.9347C155.286 40.0085 155.644 37.8182 155.644 35.3636C155.644 32.9261 155.295 30.7614 154.596 28.8693C153.897 26.9773 152.857 25.4943 151.476 24.4205C150.096 23.3466 148.374 22.8097 146.312 22.8097C144.334 22.8097 142.655 23.3295 141.275 24.3693C139.894 25.4091 138.846 26.8665 138.13 28.7415C137.431 30.6165 137.082 32.8239 137.082 35.3636ZM180.821 2.63636V55H171.565V2.63636H180.821ZM206.285 55.767C202.347 55.767 198.947 54.9489 196.083 53.3125C193.236 51.6591 191.046 49.3239 189.512 46.3068C187.978 43.2727 187.211 39.7017 187.211 35.5938C187.211 31.554 187.978 28.0085 189.512 24.9574C191.063 21.8892 193.228 19.5028 196.006 17.7983C198.785 16.0767 202.049 15.2159 205.799 15.2159C208.219 15.2159 210.503 15.608 212.651 16.392C214.816 17.1591 216.725 18.3523 218.378 19.9716C220.049 21.5909 221.361 23.6534 222.316 26.1591C223.27 28.6477 223.748 31.6136 223.748 35.0568V37.8949H191.557V31.6562H214.876C214.859 29.8835 214.475 28.3068 213.725 26.9261C212.975 25.5284 211.927 24.429 210.58 23.6278C209.251 22.8267 207.699 22.4261 205.927 22.4261C204.035 22.4261 202.373 22.8864 200.941 23.8068C199.509 24.7102 198.393 25.9034 197.592 27.3864C196.807 28.8523 196.407 30.4631 196.39 32.2188V37.6648C196.39 39.9489 196.807 41.9091 197.643 43.5455C198.478 45.1648 199.645 46.4091 201.145 47.2784C202.645 48.1307 204.401 48.5568 206.413 48.5568C207.759 48.5568 208.978 48.3693 210.069 47.9943C211.16 47.6023 212.106 47.0312 212.907 46.2812C213.708 45.5312 214.313 44.6023 214.722 43.4943L223.364 44.4659C222.819 46.75 221.779 48.7443 220.245 50.4489C218.728 52.1364 216.785 53.4489 214.415 54.3864C212.046 55.3068 209.336 55.767 206.285 55.767ZM277.597 26.108L269.16 27.0284C268.921 26.1761 268.503 25.375 267.907 24.625C267.327 23.875 266.543 23.2699 265.555 22.8097C264.566 22.3494 263.356 22.1193 261.924 22.1193C259.998 22.1193 258.378 22.5369 257.066 23.3722C255.77 24.2074 255.131 25.2898 255.148 26.6193C255.131 27.7614 255.549 28.6903 256.401 29.4062C257.27 30.1222 258.702 30.7102 260.697 31.1705L267.395 32.6023C271.111 33.4034 273.873 34.6733 275.68 36.4119C277.503 38.1506 278.424 40.4261 278.441 43.2386C278.424 45.7102 277.699 47.892 276.268 49.7841C274.853 51.6591 272.884 53.125 270.361 54.1818C267.839 55.2386 264.941 55.767 261.668 55.767C256.861 55.767 252.992 54.7614 250.06 52.75C247.128 50.7216 245.381 47.9006 244.819 44.2869L253.844 43.4176C254.253 45.1903 255.123 46.5284 256.452 47.4318C257.782 48.3352 259.512 48.7869 261.643 48.7869C263.841 48.7869 265.606 48.3352 266.935 47.4318C268.282 46.5284 268.955 45.4119 268.955 44.0824C268.955 42.9574 268.52 42.0284 267.651 41.2955C266.799 40.5625 265.469 40 263.662 39.608L256.964 38.2017C253.197 37.4176 250.41 36.0966 248.603 34.2386C246.796 32.3636 245.901 29.9943 245.918 27.1307C245.901 24.7102 246.557 22.6136 247.887 20.8409C249.234 19.0511 251.1 17.6705 253.486 16.6989C255.89 15.7102 258.66 15.2159 261.796 15.2159C266.398 15.2159 270.02 16.196 272.662 18.1562C275.322 20.1165 276.966 22.767 277.597 26.108ZM284.633 69.7273V15.7273H293.735V22.2216H294.272C294.75 21.267 295.423 20.2528 296.292 19.179C297.161 18.0881 298.338 17.1591 299.821 16.392C301.303 15.608 303.196 15.2159 305.497 15.2159C308.531 15.2159 311.267 15.9915 313.704 17.5426C316.159 19.0767 318.102 21.3523 319.534 24.3693C320.982 27.3693 321.707 31.0511 321.707 35.4148C321.707 39.7273 321 43.392 319.585 46.4091C318.17 49.4261 316.244 51.7273 313.806 53.3125C311.369 54.8977 308.607 55.6903 305.522 55.6903C303.272 55.6903 301.406 55.3153 299.923 54.5653C298.44 53.8153 297.247 52.9119 296.343 51.8551C295.457 50.7812 294.767 49.767 294.272 48.8125H293.889V69.7273H284.633ZM293.71 35.3636C293.71 37.9034 294.068 40.1278 294.784 42.0369C295.517 43.946 296.565 45.4375 297.928 46.5114C299.309 47.5682 300.98 48.0966 302.94 48.0966C304.985 48.0966 306.698 47.5511 308.079 46.4602C309.46 45.3523 310.5 43.8437 311.198 41.9347C311.914 40.0085 312.272 37.8182 312.272 35.3636C312.272 32.9261 311.923 30.7614 311.224 28.8693C310.525 26.9773 309.485 25.4943 308.105 24.4205C306.724 23.3466 305.002 22.8097 302.94 22.8097C300.963 22.8097 299.284 23.3295 297.903 24.3693C296.522 25.4091 295.474 26.8665 294.758 28.7415C294.059 30.6165 293.71 32.8239 293.71 35.3636ZM345.324 55.767C341.488 55.767 338.165 54.9233 335.352 53.2358C332.54 51.5483 330.358 49.1875 328.807 46.1534C327.273 43.1193 326.506 39.5739 326.506 35.517C326.506 31.4602 327.273 27.9062 328.807 24.8551C330.358 21.804 332.54 19.4347 335.352 17.7472C338.165 16.0597 341.488 15.2159 345.324 15.2159C349.159 15.2159 352.483 16.0597 355.295 17.7472C358.108 19.4347 360.281 21.804 361.815 24.8551C363.366 27.9062 364.142 31.4602 364.142 35.517C364.142 39.5739 363.366 43.1193 361.815 46.1534C360.281 49.1875 358.108 51.5483 355.295 53.2358C352.483 54.9233 349.159 55.767 345.324 55.767ZM345.375 48.3523C347.454 48.3523 349.193 47.7812 350.591 46.6392C351.988 45.4801 353.028 43.929 353.71 41.9858C354.409 40.0426 354.758 37.8778 354.758 35.4915C354.758 33.0881 354.409 30.9148 353.71 28.9716C353.028 27.0114 351.988 25.4517 350.591 24.2926C349.193 23.1335 347.454 22.554 345.375 22.554C343.244 22.554 341.471 23.1335 340.057 24.2926C338.659 25.4517 337.611 27.0114 336.912 28.9716C336.23 30.9148 335.889 33.0881 335.889 35.4915C335.889 37.8778 336.23 40.0426 336.912 41.9858C337.611 43.929 338.659 45.4801 340.057 46.6392C341.471 47.7812 343.244 48.3523 345.375 48.3523ZM370.558 55V15.7273H379.532V22.2727H379.941C380.657 20.0057 381.884 18.2585 383.623 17.0312C385.379 15.7869 387.382 15.1648 389.632 15.1648C390.143 15.1648 390.714 15.1903 391.345 15.2415C391.992 15.2756 392.529 15.3352 392.955 15.4205V23.9347C392.563 23.7983 391.941 23.679 391.089 23.5767C390.254 23.4574 389.444 23.3977 388.66 23.3977C386.972 23.3977 385.455 23.7642 384.109 24.4972C382.779 25.2131 381.731 26.2102 380.964 27.4886C380.197 28.767 379.813 30.2415 379.813 31.9119V55H370.558ZM419.385 15.7273V22.8864H396.808V15.7273H419.385ZM402.382 6.31818H411.638V43.1875C411.638 44.4318 411.825 45.3864 412.2 46.0511C412.592 46.6989 413.104 47.142 413.734 47.3807C414.365 47.6193 415.064 47.7386 415.831 47.7386C416.41 47.7386 416.939 47.696 417.416 47.6108C417.91 47.5256 418.285 47.4489 418.541 47.3807L420.101 54.6165C419.606 54.7869 418.899 54.9744 417.979 55.179C417.075 55.3835 415.967 55.5028 414.655 55.5369C412.336 55.6051 410.248 55.2557 408.39 54.4886C406.532 53.7045 405.058 52.4943 403.967 50.858C402.893 49.2216 402.365 47.1761 402.382 44.7216V6.31818ZM433.791 55L422.694 15.7273H432.129L439.032 43.3409H439.39L446.447 15.7273H455.779L462.836 43.1875H463.22L470.021 15.7273H479.481L468.359 55H458.72L451.356 28.4602H450.819L443.455 55H433.791ZM500.765 55.767C496.827 55.767 493.427 54.9489 490.563 53.3125C487.716 51.6591 485.526 49.3239 483.992 46.3068C482.458 43.2727 481.691 39.7017 481.691 35.5938C481.691 31.554 482.458 28.0085 483.992 24.9574C485.543 21.8892 487.708 19.5028 490.486 17.7983C493.265 16.0767 496.529 15.2159 500.279 15.2159C502.699 15.2159 504.983 15.608 507.131 16.392C509.296 17.1591 511.205 18.3523 512.858 19.9716C514.529 21.5909 515.841 23.6534 516.796 26.1591C517.75 28.6477 518.228 31.6136 518.228 35.0568V37.8949H486.037V31.6562H509.356C509.339 29.8835 508.955 28.3068 508.205 26.9261C507.455 25.5284 506.407 24.429 505.06 23.6278C503.731 22.8267 502.179 22.4261 500.407 22.4261C498.515 22.4261 496.853 22.8864 495.421 23.8068C493.989 24.7102 492.873 25.9034 492.072 27.3864C491.287 28.8523 490.887 30.4631 490.87 32.2188V37.6648C490.87 39.9489 491.287 41.9091 492.123 43.5455C492.958 45.1648 494.125 46.4091 495.625 47.2784C497.125 48.1307 498.881 48.5568 500.893 48.5568C502.239 48.5568 503.458 48.3693 504.549 47.9943C505.64 47.6023 506.586 47.0312 507.387 46.2812C508.188 45.5312 508.793 44.6023 509.202 43.4943L517.844 44.4659C517.299 46.75 516.259 48.7443 514.725 50.4489C513.208 52.1364 511.265 53.4489 508.895 54.3864C506.526 55.3068 503.816 55.767 500.765 55.767ZM535.919 55.7926C533.431 55.7926 531.189 55.3494 529.195 54.4631C527.217 53.5597 525.649 52.2301 524.49 50.4744C523.348 48.7187 522.777 46.554 522.777 43.9801C522.777 41.7642 523.186 39.9318 524.004 38.483C524.823 37.0341 525.939 35.875 527.354 35.0057C528.769 34.1364 530.362 33.4801 532.135 33.0369C533.925 32.5767 535.774 32.2443 537.683 32.0398C539.985 31.8011 541.851 31.5881 543.283 31.4006C544.715 31.196 545.754 30.8892 546.402 30.4801C547.067 30.054 547.399 29.3977 547.399 28.5114V28.358C547.399 26.4318 546.828 24.9403 545.686 23.8835C544.544 22.8267 542.899 22.2983 540.752 22.2983C538.485 22.2983 536.686 22.7926 535.357 23.7812C534.044 24.7699 533.158 25.9375 532.698 27.2841L524.056 26.0568C524.737 23.6705 525.862 21.6761 527.431 20.0739C528.999 18.4545 530.916 17.2443 533.183 16.4432C535.45 15.625 537.956 15.2159 540.7 15.2159C542.592 15.2159 544.476 15.4375 546.351 15.8807C548.226 16.3239 549.939 17.0568 551.49 18.0795C553.041 19.0852 554.286 20.4574 555.223 22.196C556.178 23.9347 556.655 26.108 556.655 28.7159V55H547.757V49.6051H547.45C546.888 50.696 546.095 51.7187 545.073 52.6733C544.067 53.6108 542.797 54.3693 541.263 54.9489C539.746 55.5114 537.965 55.7926 535.919 55.7926ZM538.323 48.9915C540.181 48.9915 541.791 48.625 543.155 47.892C544.519 47.142 545.567 46.1534 546.3 44.9261C547.05 43.6989 547.425 42.3608 547.425 40.9119V36.2841C547.135 36.5227 546.641 36.7443 545.942 36.9489C545.26 37.1534 544.493 37.3324 543.641 37.4858C542.789 37.6392 541.945 37.7756 541.11 37.8949C540.274 38.0142 539.55 38.1165 538.936 38.2017C537.556 38.3892 536.32 38.696 535.229 39.1222C534.138 39.5483 533.277 40.1449 532.646 40.9119C532.016 41.6619 531.7 42.6335 531.7 43.8267C531.7 45.5312 532.323 46.8182 533.567 47.6875C534.811 48.5568 536.396 48.9915 538.323 48.9915ZM564.522 55V15.7273H573.496V22.2727H573.905C574.621 20.0057 575.849 18.2585 577.587 17.0312C579.343 15.7869 581.346 15.1648 583.596 15.1648C584.107 15.1648 584.678 15.1903 585.309 15.2415C585.956 15.2756 586.493 15.3352 586.92 15.4205V23.9347C586.527 23.7983 585.905 23.679 585.053 23.5767C584.218 23.4574 583.408 23.3977 582.624 23.3977C580.937 23.3977 579.42 23.7642 578.073 24.4972C576.743 25.2131 575.695 26.2102 574.928 27.4886C574.161 28.767 573.777 30.2415 573.777 31.9119V55H564.522ZM627.659 15.7273V22.8864H605.082V15.7273H627.659ZM610.656 6.31818H619.912V43.1875C619.912 44.4318 620.099 45.3864 620.474 46.0511C620.866 46.6989 621.378 47.142 622.008 47.3807C622.639 47.6193 623.338 47.7386 624.105 47.7386C624.684 47.7386 625.213 47.696 625.69 47.6108C626.184 47.5256 626.559 47.4489 626.815 47.3807L628.375 54.6165C627.88 54.7869 627.173 54.9744 626.253 55.179C625.349 55.3835 624.241 55.5028 622.929 55.5369C620.611 55.6051 618.522 55.2557 616.665 54.4886C614.807 53.7045 613.332 52.4943 612.241 50.858C611.167 49.2216 610.639 47.1761 610.656 44.7216V6.31818ZM644.059 31.9886V55H634.803V2.63636H643.854V22.4006H644.315C645.235 20.1847 646.658 18.4375 648.585 17.1591C650.528 15.8636 652.999 15.2159 655.999 15.2159C658.727 15.2159 661.104 15.7869 663.133 16.929C665.161 18.071 666.729 19.7415 667.837 21.9403C668.962 24.1392 669.525 26.8239 669.525 29.9943V55H660.269V31.4261C660.269 28.7841 659.587 26.7301 658.224 25.2642C656.877 23.7812 654.985 23.0398 652.548 23.0398C650.911 23.0398 649.445 23.3977 648.15 24.1136C646.872 24.8125 645.866 25.8267 645.133 27.1562C644.417 28.4858 644.059 30.0966 644.059 31.9886ZM688.821 55.7926C686.332 55.7926 684.091 55.3494 682.096 54.4631C680.119 53.5597 678.551 52.2301 677.392 50.4744C676.25 48.7187 675.679 46.554 675.679 43.9801C675.679 41.7642 676.088 39.9318 676.906 38.483C677.724 37.0341 678.841 35.875 680.255 35.0057C681.67 34.1364 683.264 33.4801 685.037 33.0369C686.826 32.5767 688.676 32.2443 690.585 32.0398C692.886 31.8011 694.753 31.5881 696.184 31.4006C697.616 31.196 698.656 30.8892 699.304 30.4801C699.968 30.054 700.301 29.3977 700.301 28.5114V28.358C700.301 26.4318 699.73 24.9403 698.588 23.8835C697.446 22.8267 695.801 22.2983 693.653 22.2983C691.386 22.2983 689.588 22.7926 688.258 23.7812C686.946 24.7699 686.059 25.9375 685.599 27.2841L676.957 26.0568C677.639 23.6705 678.764 21.6761 680.332 20.0739C681.9 18.4545 683.818 17.2443 686.085 16.4432C688.352 15.625 690.858 15.2159 693.602 15.2159C695.494 15.2159 697.378 15.4375 699.253 15.8807C701.128 16.3239 702.841 17.0568 704.392 18.0795C705.943 19.0852 707.187 20.4574 708.125 22.196C709.079 23.9347 709.557 26.108 709.557 28.7159V55H700.659V49.6051H700.352C699.789 50.696 698.997 51.7187 697.974 52.6733C696.968 53.6108 695.699 54.3693 694.164 54.9489C692.647 55.5114 690.866 55.7926 688.821 55.7926ZM691.224 48.9915C693.082 48.9915 694.693 48.625 696.057 47.892C697.42 47.142 698.468 46.1534 699.201 44.9261C699.951 43.6989 700.326 42.3608 700.326 40.9119V36.2841C700.037 36.5227 699.542 36.7443 698.843 36.9489C698.162 37.1534 697.395 37.3324 696.542 37.4858C695.69 37.6392 694.846 37.7756 694.011 37.8949C693.176 38.0142 692.451 38.1165 691.838 38.2017C690.457 38.3892 689.221 38.696 688.13 39.1222C687.039 39.5483 686.179 40.1449 685.548 40.9119C684.917 41.6619 684.602 42.6335 684.602 43.8267C684.602 45.5312 685.224 46.8182 686.468 47.6875C687.713 48.5568 689.298 48.9915 691.224 48.9915ZM737.034 15.7273V22.8864H714.457V15.7273H737.034ZM720.031 6.31818H729.287V43.1875C729.287 44.4318 729.474 45.3864 729.849 46.0511C730.242 46.6989 730.753 47.142 731.384 47.3807C732.014 47.6193 732.713 47.7386 733.48 47.7386C734.06 47.7386 734.588 47.696 735.065 47.6108C735.56 47.5256 735.935 47.4489 736.19 47.3807L737.75 54.6165C737.256 54.7869 736.548 54.9744 735.628 55.179C734.724 55.3835 733.617 55.5028 732.304 55.5369C729.986 55.6051 727.898 55.2557 726.04 54.4886C724.182 53.7045 722.707 52.4943 721.617 50.858C720.543 49.2216 720.014 47.1761 720.031 44.7216V6.31818ZM92.6386 145L81.542 105.727H90.9767L97.8801 133.341H98.238L105.295 105.727H114.627L121.684 133.188H122.068L128.869 105.727H138.329L127.207 145H117.568L110.204 118.46H109.667L102.303 145H92.6386ZM159.357 145.767C155.522 145.767 152.198 144.923 149.385 143.236C146.573 141.548 144.391 139.187 142.84 136.153C141.306 133.119 140.539 129.574 140.539 125.517C140.539 121.46 141.306 117.906 142.84 114.855C144.391 111.804 146.573 109.435 149.385 107.747C152.198 106.06 155.522 105.216 159.357 105.216C163.192 105.216 166.516 106.06 169.329 107.747C172.141 109.435 174.314 111.804 175.848 114.855C177.4 117.906 178.175 121.46 178.175 125.517C178.175 129.574 177.4 133.119 175.848 136.153C174.314 139.187 172.141 141.548 169.329 143.236C166.516 144.923 163.192 145.767 159.357 145.767ZM159.408 138.352C161.488 138.352 163.226 137.781 164.624 136.639C166.022 135.48 167.062 133.929 167.743 131.986C168.442 130.043 168.792 127.878 168.792 125.491C168.792 123.088 168.442 120.915 167.743 118.972C167.062 117.011 166.022 115.452 164.624 114.293C163.226 113.134 161.488 112.554 159.408 112.554C157.277 112.554 155.505 113.134 154.09 114.293C152.692 115.452 151.644 117.011 150.945 118.972C150.263 120.915 149.922 123.088 149.922 125.491C149.922 127.878 150.263 130.043 150.945 131.986C151.644 133.929 152.692 135.48 154.09 136.639C155.505 137.781 157.277 138.352 159.408 138.352ZM184.591 145V105.727H193.565V112.273H193.975C194.69 110.006 195.918 108.259 197.656 107.031C199.412 105.787 201.415 105.165 203.665 105.165C204.176 105.165 204.747 105.19 205.378 105.241C206.026 105.276 206.563 105.335 206.989 105.42V113.935C206.597 113.798 205.975 113.679 205.122 113.577C204.287 113.457 203.477 113.398 202.693 113.398C201.006 113.398 199.489 113.764 198.142 114.497C196.813 115.213 195.764 116.21 194.997 117.489C194.23 118.767 193.847 120.241 193.847 121.912V145H184.591ZM220.135 132.676L220.11 121.503H221.593L235.706 105.727H246.522L229.161 125.057H227.243L220.135 132.676ZM211.698 145V92.6364H220.954V145H211.698ZM236.346 145L223.561 127.128L229.8 120.608L247.417 145H236.346ZM282.29 116.108L273.852 117.028C273.614 116.176 273.196 115.375 272.599 114.625C272.02 113.875 271.236 113.27 270.247 112.81C269.259 112.349 268.048 112.119 266.617 112.119C264.69 112.119 263.071 112.537 261.759 113.372C260.463 114.207 259.824 115.29 259.841 116.619C259.824 117.761 260.242 118.69 261.094 119.406C261.963 120.122 263.395 120.71 265.389 121.17L272.088 122.602C275.804 123.403 278.565 124.673 280.372 126.412C282.196 128.151 283.117 130.426 283.134 133.239C283.117 135.71 282.392 137.892 280.96 139.784C279.546 141.659 277.577 143.125 275.054 144.182C272.531 145.239 269.634 145.767 266.361 145.767C261.554 145.767 257.685 144.761 254.753 142.75C251.821 140.722 250.074 137.901 249.511 134.287L258.537 133.418C258.946 135.19 259.815 136.528 261.145 137.432C262.474 138.335 264.205 138.787 266.335 138.787C268.534 138.787 270.298 138.335 271.628 137.432C272.974 136.528 273.648 135.412 273.648 134.082C273.648 132.957 273.213 132.028 272.344 131.295C271.492 130.562 270.162 130 268.355 129.608L261.656 128.202C257.889 127.418 255.102 126.097 253.296 124.239C251.489 122.364 250.594 119.994 250.611 117.131C250.594 114.71 251.25 112.614 252.58 110.841C253.926 109.051 255.793 107.67 258.179 106.699C260.582 105.71 263.352 105.216 266.489 105.216C271.091 105.216 274.713 106.196 277.355 108.156C280.014 110.116 281.659 112.767 282.29 116.108ZM315.001 92.6364V145H305.745V92.6364H315.001ZM323.078 145V105.727H332.334V145H323.078ZM327.732 100.153C326.266 100.153 325.005 99.6676 323.948 98.696C322.891 97.7074 322.363 96.5227 322.363 95.142C322.363 93.7443 322.891 92.5597 323.948 91.5881C325.005 90.5994 326.266 90.1051 327.732 90.1051C329.215 90.1051 330.476 90.5994 331.516 91.5881C332.573 92.5597 333.101 93.7443 333.101 95.142C333.101 96.5227 332.573 97.7074 331.516 98.696C330.476 99.6676 329.215 100.153 327.732 100.153ZM348.849 132.676L348.824 121.503H350.307L364.42 105.727H375.236L357.875 125.057H355.957L348.849 132.676ZM340.412 145V92.6364H349.668V145H340.412ZM365.06 145L352.276 127.128L358.514 120.608L376.131 145H365.06ZM395.733 145.767C391.796 145.767 388.395 144.949 385.532 143.312C382.685 141.659 380.495 139.324 378.961 136.307C377.426 133.273 376.659 129.702 376.659 125.594C376.659 121.554 377.426 118.009 378.961 114.957C380.512 111.889 382.676 109.503 385.455 107.798C388.233 106.077 391.497 105.216 395.247 105.216C397.668 105.216 399.952 105.608 402.1 106.392C404.265 107.159 406.174 108.352 407.827 109.972C409.497 111.591 410.81 113.653 411.765 116.159C412.719 118.648 413.196 121.614 413.196 125.057V127.895H381.006V121.656H404.324C404.307 119.884 403.924 118.307 403.174 116.926C402.424 115.528 401.375 114.429 400.029 113.628C398.699 112.827 397.148 112.426 395.375 112.426C393.483 112.426 391.821 112.886 390.39 113.807C388.958 114.71 387.841 115.903 387.04 117.386C386.256 118.852 385.855 120.463 385.838 122.219V127.665C385.838 129.949 386.256 131.909 387.091 133.545C387.926 135.165 389.094 136.409 390.594 137.278C392.094 138.131 393.85 138.557 395.861 138.557C397.208 138.557 398.426 138.369 399.517 137.994C400.608 137.602 401.554 137.031 402.355 136.281C403.157 135.531 403.762 134.602 404.171 133.494L412.813 134.466C412.267 136.75 411.228 138.744 409.694 140.449C408.176 142.136 406.233 143.449 403.864 144.386C401.495 145.307 398.784 145.767 395.733 145.767ZM436.006 145V105.727H444.853V112.401H445.313C446.131 110.151 447.486 108.395 449.378 107.134C451.27 105.855 453.529 105.216 456.154 105.216C458.813 105.216 461.054 105.864 462.878 107.159C464.719 108.437 466.015 110.185 466.765 112.401H467.174C468.043 110.219 469.509 108.48 471.571 107.185C473.651 105.872 476.114 105.216 478.961 105.216C482.574 105.216 485.523 106.358 487.807 108.642C490.091 110.926 491.233 114.259 491.233 118.639V145H481.952V120.071C481.952 117.634 481.304 115.852 480.009 114.727C478.713 113.585 477.128 113.014 475.253 113.014C473.02 113.014 471.273 113.713 470.012 115.111C468.767 116.491 468.145 118.29 468.145 120.506V145H459.068V119.688C459.068 117.659 458.455 116.04 457.228 114.83C456.017 113.619 454.432 113.014 452.472 113.014C451.142 113.014 449.932 113.355 448.841 114.037C447.75 114.702 446.881 115.648 446.233 116.875C445.586 118.085 445.262 119.5 445.262 121.119V145H436.006ZM510.484 145.793C507.996 145.793 505.754 145.349 503.76 144.463C501.783 143.56 500.214 142.23 499.055 140.474C497.913 138.719 497.342 136.554 497.342 133.98C497.342 131.764 497.751 129.932 498.57 128.483C499.388 127.034 500.504 125.875 501.919 125.006C503.334 124.136 504.927 123.48 506.7 123.037C508.49 122.577 510.339 122.244 512.249 122.04C514.55 121.801 516.416 121.588 517.848 121.401C519.28 121.196 520.32 120.889 520.967 120.48C521.632 120.054 521.964 119.398 521.964 118.511V118.358C521.964 116.432 521.393 114.94 520.251 113.884C519.109 112.827 517.464 112.298 515.317 112.298C513.05 112.298 511.251 112.793 509.922 113.781C508.609 114.77 507.723 115.937 507.263 117.284L498.621 116.057C499.302 113.67 500.427 111.676 501.996 110.074C503.564 108.455 505.481 107.244 507.749 106.443C510.016 105.625 512.521 105.216 515.266 105.216C517.158 105.216 519.041 105.438 520.916 105.881C522.791 106.324 524.504 107.057 526.055 108.08C527.606 109.085 528.851 110.457 529.788 112.196C530.743 113.935 531.22 116.108 531.22 118.716V145H522.322V139.605H522.016C521.453 140.696 520.66 141.719 519.638 142.673C518.632 143.611 517.362 144.369 515.828 144.949C514.311 145.511 512.53 145.793 510.484 145.793ZM512.888 138.991C514.746 138.991 516.356 138.625 517.72 137.892C519.084 137.142 520.132 136.153 520.865 134.926C521.615 133.699 521.99 132.361 521.99 130.912V126.284C521.7 126.523 521.206 126.744 520.507 126.949C519.825 127.153 519.058 127.332 518.206 127.486C517.354 127.639 516.51 127.776 515.675 127.895C514.839 128.014 514.115 128.116 513.501 128.202C512.121 128.389 510.885 128.696 509.794 129.122C508.703 129.548 507.842 130.145 507.212 130.912C506.581 131.662 506.266 132.634 506.266 133.827C506.266 135.531 506.888 136.818 508.132 137.688C509.376 138.557 510.962 138.991 512.888 138.991ZM556.166 160.545C552.843 160.545 549.987 160.094 547.601 159.19C545.215 158.304 543.297 157.111 541.848 155.611C540.399 154.111 539.394 152.449 538.831 150.625L547.166 148.605C547.541 149.372 548.087 150.131 548.803 150.881C549.519 151.648 550.482 152.278 551.692 152.773C552.919 153.284 554.462 153.54 556.32 153.54C558.945 153.54 561.118 152.901 562.84 151.622C564.561 150.361 565.422 148.281 565.422 145.384V137.943H564.962C564.485 138.898 563.786 139.878 562.865 140.884C561.962 141.889 560.76 142.733 559.26 143.415C557.777 144.097 555.911 144.438 553.661 144.438C550.644 144.438 547.908 143.73 545.453 142.315C543.016 140.884 541.073 138.753 539.624 135.923C538.192 133.077 537.476 129.514 537.476 125.236C537.476 120.923 538.192 117.284 539.624 114.318C541.073 111.335 543.024 109.077 545.479 107.543C547.934 105.991 550.669 105.216 553.686 105.216C555.987 105.216 557.88 105.608 559.362 106.392C560.862 107.159 562.056 108.088 562.942 109.179C563.828 110.253 564.502 111.267 564.962 112.222H565.473V105.727H574.601V145.639C574.601 148.997 573.8 151.776 572.198 153.974C570.595 156.173 568.405 157.818 565.627 158.909C562.848 160 559.695 160.545 556.166 160.545ZM556.243 137.176C558.203 137.176 559.874 136.699 561.255 135.744C562.635 134.79 563.684 133.418 564.399 131.628C565.115 129.838 565.473 127.69 565.473 125.185C565.473 122.713 565.115 120.548 564.399 118.69C563.701 116.832 562.661 115.392 561.28 114.369C559.916 113.33 558.237 112.81 556.243 112.81C554.181 112.81 552.459 113.347 551.078 114.42C549.698 115.494 548.658 116.969 547.959 118.844C547.26 120.702 546.911 122.815 546.911 125.185C546.911 127.588 547.26 129.693 547.959 131.5C548.675 133.29 549.723 134.687 551.104 135.693C552.502 136.682 554.215 137.176 556.243 137.176ZM582.647 145V105.727H591.903V145H582.647ZM587.3 100.153C585.834 100.153 584.573 99.6676 583.516 98.696C582.459 97.7074 581.931 96.5227 581.931 95.142C581.931 93.7443 582.459 92.5597 583.516 91.5881C584.573 90.5994 585.834 90.1051 587.3 90.1051C588.783 90.1051 590.045 90.5994 591.084 91.5881C592.141 92.5597 592.67 93.7443 592.67 95.142C592.67 96.5227 592.141 97.7074 591.084 98.696C590.045 99.6676 588.783 100.153 587.3 100.153ZM617.111 145.767C613.191 145.767 609.824 144.906 607.012 143.185C604.216 141.463 602.06 139.085 600.543 136.051C599.043 133 598.293 129.489 598.293 125.517C598.293 121.528 599.06 118.009 600.594 114.957C602.128 111.889 604.293 109.503 607.088 107.798C609.901 106.077 613.225 105.216 617.06 105.216C620.247 105.216 623.068 105.804 625.523 106.98C627.995 108.139 629.963 109.784 631.429 111.915C632.895 114.028 633.73 116.5 633.935 119.33H625.088C624.73 117.437 623.878 115.861 622.532 114.599C621.202 113.321 619.421 112.682 617.188 112.682C615.296 112.682 613.634 113.193 612.202 114.216C610.77 115.222 609.654 116.67 608.853 118.562C608.068 120.455 607.676 122.722 607.676 125.364C607.676 128.04 608.068 130.341 608.853 132.267C609.637 134.176 610.736 135.651 612.151 136.69C613.583 137.713 615.262 138.224 617.188 138.224C618.551 138.224 619.77 137.969 620.844 137.457C621.935 136.929 622.847 136.17 623.58 135.182C624.313 134.193 624.816 132.991 625.088 131.577H633.935C633.713 134.355 632.895 136.818 631.48 138.966C630.066 141.097 628.14 142.767 625.702 143.977C623.265 145.17 620.401 145.767 617.111 145.767ZM645.797 145.562C644.246 145.562 642.916 145.017 641.808 143.926C640.7 142.835 640.155 141.506 640.172 139.938C640.155 138.403 640.7 137.091 641.808 136C642.916 134.909 644.246 134.364 645.797 134.364C647.297 134.364 648.601 134.909 649.709 136C650.834 137.091 651.405 138.403 651.422 139.938C651.405 140.977 651.132 141.923 650.604 142.776C650.092 143.628 649.41 144.31 648.558 144.821C647.723 145.315 646.802 145.562 645.797 145.562Z" fill="white"/>
</svg>
