<svg width="260" height="260" viewBox="0 0 260 260" fill="none" xmlns="http://www.w3.org/2000/svg">
<rect width="260" height="260" rx="130" fill="#F4EBFF"/>
<g clip-path="url(#clip0_182_2337)">
<path d="M66.2694 110.122L62.0486 108.991L58.4917 122.265L55.2804 110.281L51.0595 111.412L54.5291 124.36L45.8872 115.718L42.7974 118.808L52.2764 128.287L40.4718 125.124L39.3408 129.345L52.2388 132.801C52.0912 132.164 52.0131 131.501 52.0131 130.819C52.0131 125.992 55.9258 122.079 60.7525 122.079C65.5792 122.079 69.492 125.992 69.492 130.819C69.492 131.496 69.4148 132.156 69.269 132.789L80.9909 135.93L82.1218 131.709L69.1725 128.239L80.9779 125.076L79.8469 120.855L66.8981 124.325L75.54 115.683L72.4501 112.593L63.1026 121.941L66.2694 110.122Z" fill="#FF4405"/>
<path d="M69.2567 132.838C68.8948 134.368 68.1308 135.742 67.0825 136.844L75.5745 145.336L78.6644 142.246L69.2567 132.838Z" fill="#FF4405"/>
<path d="M66.9968 136.932C65.9359 138.016 64.5951 138.825 63.0916 139.241L66.1817 150.774L70.4025 149.643L66.9968 136.932Z" fill="#FF4405"/>
<path d="M62.934 139.283C62.2364 139.463 61.5053 139.558 60.7518 139.558C59.9446 139.558 59.1629 139.449 58.4208 139.244L55.3279 150.787L59.5487 151.917L62.934 139.283Z" fill="#FF4405"/>
<path d="M58.2715 139.201C56.791 138.764 55.4741 137.945 54.4348 136.858L45.9219 145.371L49.0118 148.461L58.2715 139.201Z" fill="#FF4405"/>
<path d="M54.3647 136.783C53.3432 135.689 52.5992 134.333 52.2451 132.827L40.4849 135.978L41.6158 140.199L54.3647 136.783Z" fill="#FF4405"/>
</g>
<path d="M107.52 118.909V134.119L97.77 118.909H93.87V139.909H97.77V124.819L107.52 139.909H111.42V118.909H107.52Z" fill="#101828"/>
<path d="M113.177 122.839H117.197V118.909H113.177V122.839ZM113.237 139.909V124.909H117.137V139.909H113.237Z" fill="#101828"/>
<path d="M133.917 132.409C133.917 127.219 130.227 124.759 126.327 124.729C122.397 124.699 118.767 127.219 118.767 132.409C118.767 137.599 122.397 140.119 126.327 140.089C129.897 140.059 132.357 138.409 133.497 135.679L130.467 134.419C129.537 136.279 128.067 136.939 126.327 136.969C124.827 136.999 123.117 136.279 122.757 133.609H133.827C133.887 133.219 133.917 132.829 133.917 132.409ZM126.327 127.819C127.827 127.849 129.357 128.659 129.837 130.819H122.817C123.327 128.629 124.857 127.789 126.327 127.819Z" fill="#101828"/>
<path d="M142.931 127.699V124.729H140.471V120.709L136.571 121.909V124.729H134.111V127.699H136.571V135.469C136.571 138.409 136.811 139.909 141.371 139.909H142.421V136.489H141.371C140.651 136.489 140.471 136.369 140.471 135.469V127.699H142.931Z" fill="#101828"/>
<path d="M148.726 136.639L157.006 128.179V124.909H144.586V128.179H152.626L144.346 136.639V139.909H157.096V136.639H148.726Z" fill="#101828"/>
<path d="M158.494 135.679L162.424 135.079C162.694 136.579 164.464 137.149 165.544 137.149C166.654 137.149 168.574 136.909 168.574 135.109C168.574 131.599 158.944 135.979 158.944 129.259C158.944 124.939 163.954 124.699 165.544 124.699C167.044 124.699 171.394 124.939 172.294 128.419L168.574 129.199C168.244 127.609 166.564 127.309 165.664 127.309C164.764 127.309 162.844 127.519 162.844 129.259C162.844 132.739 172.474 128.299 172.474 135.109C172.474 139.699 167.194 140.089 165.544 140.089C164.044 140.089 159.274 139.699 158.494 135.679Z" fill="#101828"/>
<path d="M177.54 132.409C177.54 136.069 179.49 137.179 181.53 137.149C183.36 137.119 184.62 136.369 185.37 134.269L188.58 135.829C187.41 138.889 184.56 140.059 181.53 140.089C177.6 140.119 173.64 137.599 173.64 132.409C173.64 127.219 177.6 124.699 181.53 124.729C184.56 124.759 187.41 125.929 188.58 128.989L185.37 130.549C184.62 128.449 183.36 127.699 181.53 127.669C179.49 127.639 177.54 128.749 177.54 132.409Z" fill="#101828"/>
<path d="M199.05 124.669C197.04 124.669 195.21 125.719 194.04 127.969V118.909H190.14V139.909H194.04V134.599C194.04 127.729 196.89 127.159 197.94 127.159C199.62 127.159 199.86 128.899 199.86 131.449V139.909H203.76V131.449C203.76 128.269 203.25 124.669 199.05 124.669Z" fill="#101828"/>
<path d="M220.226 132.409C220.226 127.219 216.536 124.759 212.636 124.729C208.706 124.699 205.076 127.219 205.076 132.409C205.076 137.599 208.706 140.119 212.636 140.089C216.206 140.059 218.666 138.409 219.806 135.679L216.776 134.419C215.846 136.279 214.376 136.939 212.636 136.969C211.136 136.999 209.426 136.279 209.066 133.609H220.136C220.196 133.219 220.226 132.829 220.226 132.409ZM212.636 127.819C214.136 127.849 215.666 128.659 216.146 130.819H209.126C209.636 128.629 211.166 127.789 212.636 127.819Z" fill="#101828"/>
<defs>
<clipPath id="clip0_182_2337">
<rect width="44" height="44" fill="white" transform="translate(39 108)"/>
</clipPath>
</defs>
</svg>
