<svg width="260" height="260" viewBox="0 0 260 260" fill="none" xmlns="http://www.w3.org/2000/svg">
<rect width="260" height="260" rx="130" fill="#F4EBFF"/>
<rect x="46" y="125.2" width="9.59998" height="9.59999" fill="#079455"/>
<rect x="74.7999" y="134.8" width="9.6" height="9.59999" transform="rotate(180 74.7999 134.8)" fill="#067647"/>
<path d="M55.6001 125.2L65.2001 115.6V125.2L55.6001 134.8V125.2Z" fill="#ABEFC6"/>
<path d="M65.2 134.8L55.6 144.4L55.6 134.8L65.2 125.2L65.2 134.8Z" fill="#75E0A7"/>
<path d="M46 125.2L65.2 106V115.6L55.6 125.2H46Z" fill="#47CD89"/>
<path d="M74.7999 134.8L55.5999 154L55.5999 144.4L65.1999 134.8L74.7999 134.8Z" fill="#17B26A"/>
<path d="M95.708 140.28C94.196 140.28 92.7306 140.065 91.312 139.636C89.912 139.207 88.8013 138.637 87.98 137.928L89.24 135.1C90.0426 135.735 91.0226 136.257 92.18 136.668C93.356 137.06 94.532 137.256 95.708 137.256C97.164 137.256 98.2466 137.023 98.956 136.556C99.684 136.089 100.048 135.473 100.048 134.708C100.048 134.148 99.8426 133.691 99.432 133.336C99.04 132.963 98.536 132.673 97.92 132.468C97.304 132.263 96.464 132.029 95.4 131.768C93.9066 131.413 92.6933 131.059 91.76 130.704C90.8453 130.349 90.052 129.799 89.38 129.052C88.7266 128.287 88.4 127.26 88.4 125.972C88.4 124.889 88.6893 123.909 89.268 123.032C89.8653 122.136 90.752 121.427 91.928 120.904C93.1226 120.381 94.5786 120.12 96.296 120.12C97.4906 120.12 98.6666 120.269 99.824 120.568C100.981 120.867 101.98 121.296 102.82 121.856L101.672 124.684C100.813 124.18 99.9173 123.797 98.984 123.536C98.0506 123.275 97.1453 123.144 96.268 123.144C94.8306 123.144 93.7573 123.387 93.048 123.872C92.3573 124.357 92.012 125.001 92.012 125.804C92.012 126.364 92.208 126.821 92.6 127.176C93.0106 127.531 93.524 127.811 94.14 128.016C94.756 128.221 95.596 128.455 96.66 128.716C98.116 129.052 99.3106 129.407 100.244 129.78C101.177 130.135 101.971 130.685 102.624 131.432C103.296 132.179 103.632 133.187 103.632 134.456C103.632 135.539 103.333 136.519 102.736 137.396C102.157 138.273 101.271 138.973 100.076 139.496C98.8813 140.019 97.4253 140.28 95.708 140.28Z" fill="#101828"/>
<path d="M106.905 125.048H110.405V140H106.905V125.048ZM108.669 122.584C108.035 122.584 107.503 122.388 107.073 121.996C106.644 121.585 106.429 121.081 106.429 120.484C106.429 119.887 106.644 119.392 107.073 119C107.503 118.589 108.035 118.384 108.669 118.384C109.304 118.384 109.836 118.58 110.265 118.972C110.695 119.345 110.909 119.821 110.909 120.4C110.909 121.016 110.695 121.539 110.265 121.968C109.855 122.379 109.323 122.584 108.669 122.584Z" fill="#101828"/>
<path d="M119.619 140.196C118.406 140.196 117.22 140.037 116.063 139.72C114.906 139.403 113.982 139.001 113.291 138.516L114.635 135.856C115.307 136.304 116.11 136.668 117.043 136.948C117.995 137.209 118.928 137.34 119.843 137.34C121.934 137.34 122.979 136.789 122.979 135.688C122.979 135.165 122.708 134.801 122.167 134.596C121.644 134.391 120.795 134.195 119.619 134.008C118.387 133.821 117.379 133.607 116.595 133.364C115.83 133.121 115.158 132.701 114.579 132.104C114.019 131.488 113.739 130.639 113.739 129.556C113.739 128.137 114.327 127.008 115.503 126.168C116.698 125.309 118.303 124.88 120.319 124.88C121.346 124.88 122.372 125.001 123.399 125.244C124.426 125.468 125.266 125.776 125.919 126.168L124.575 128.828C123.306 128.081 121.878 127.708 120.291 127.708C119.264 127.708 118.48 127.867 117.939 128.184C117.416 128.483 117.155 128.884 117.155 129.388C117.155 129.948 117.435 130.349 117.995 130.592C118.574 130.816 119.46 131.031 120.655 131.236C121.85 131.423 122.83 131.637 123.595 131.88C124.36 132.123 125.014 132.533 125.555 133.112C126.115 133.691 126.395 134.512 126.395 135.576C126.395 136.976 125.788 138.096 124.575 138.936C123.362 139.776 121.71 140.196 119.619 140.196Z" fill="#101828"/>
<path d="M143.136 125.048L136.136 141.204C135.482 142.828 134.689 143.967 133.756 144.62C132.822 145.292 131.693 145.628 130.368 145.628C129.621 145.628 128.884 145.507 128.156 145.264C127.428 145.021 126.83 144.685 126.364 144.256L127.764 141.68C128.1 141.997 128.492 142.249 128.94 142.436C129.406 142.623 129.873 142.716 130.34 142.716C130.956 142.716 131.46 142.557 131.852 142.24C132.262 141.923 132.636 141.391 132.972 140.644L133.224 140.056L126.7 125.048H130.34L135.044 136.108L139.776 125.048H143.136Z" fill="#101828"/>
<path d="M153.611 124.88C155.067 124.88 156.365 125.197 157.503 125.832C158.661 126.467 159.566 127.363 160.219 128.52C160.873 129.677 161.199 131.012 161.199 132.524C161.199 134.036 160.873 135.38 160.219 136.556C159.566 137.713 158.661 138.609 157.503 139.244C156.365 139.879 155.067 140.196 153.611 140.196C151.595 140.196 149.999 139.524 148.823 138.18V145.432H145.323V125.048H148.655V127.008C149.234 126.299 149.943 125.767 150.783 125.412C151.642 125.057 152.585 124.88 153.611 124.88ZM153.219 137.2C154.507 137.2 155.562 136.771 156.383 135.912C157.223 135.053 157.643 133.924 157.643 132.524C157.643 131.124 157.223 129.995 156.383 129.136C155.562 128.277 154.507 127.848 153.219 127.848C152.379 127.848 151.623 128.044 150.951 128.436C150.279 128.809 149.747 129.351 149.355 130.06C148.963 130.769 148.767 131.591 148.767 132.524C148.767 133.457 148.963 134.279 149.355 134.988C149.747 135.697 150.279 136.248 150.951 136.64C151.623 137.013 152.379 137.2 153.219 137.2Z" fill="#101828"/>
<path d="M173.003 124.88C174.888 124.88 176.4 125.431 177.539 126.532C178.677 127.633 179.247 129.267 179.247 131.432V140H175.747V131.88C175.747 130.573 175.439 129.593 174.823 128.94C174.207 128.268 173.329 127.932 172.191 127.932C170.903 127.932 169.885 128.324 169.139 129.108C168.392 129.873 168.019 130.984 168.019 132.44V140H164.519V119.224H168.019V126.784C168.597 126.168 169.307 125.701 170.147 125.384C171.005 125.048 171.957 124.88 173.003 124.88Z" fill="#101828"/>
<path d="M198.163 125.048V140H194.831V138.096C194.271 138.768 193.571 139.291 192.731 139.664C191.891 140.019 190.985 140.196 190.015 140.196C188.017 140.196 186.44 139.645 185.283 138.544C184.144 137.424 183.575 135.772 183.575 133.588V125.048H187.075V133.112C187.075 134.456 187.373 135.464 187.971 136.136C188.587 136.789 189.455 137.116 190.575 137.116C191.825 137.116 192.815 136.733 193.543 135.968C194.289 135.184 194.663 134.064 194.663 132.608V125.048H198.163Z" fill="#101828"/>
<path d="M207.365 140.196C206.152 140.196 204.966 140.037 203.809 139.72C202.652 139.403 201.728 139.001 201.037 138.516L202.381 135.856C203.053 136.304 203.856 136.668 204.789 136.948C205.741 137.209 206.674 137.34 207.589 137.34C209.68 137.34 210.725 136.789 210.725 135.688C210.725 135.165 210.454 134.801 209.913 134.596C209.39 134.391 208.541 134.195 207.365 134.008C206.133 133.821 205.125 133.607 204.341 133.364C203.576 133.121 202.904 132.701 202.325 132.104C201.765 131.488 201.485 130.639 201.485 129.556C201.485 128.137 202.073 127.008 203.249 126.168C204.444 125.309 206.049 124.88 208.065 124.88C209.092 124.88 210.118 125.001 211.145 125.244C212.172 125.468 213.012 125.776 213.665 126.168L212.321 128.828C211.052 128.081 209.624 127.708 208.037 127.708C207.01 127.708 206.226 127.867 205.685 128.184C205.162 128.483 204.901 128.884 204.901 129.388C204.901 129.948 205.181 130.349 205.741 130.592C206.32 130.816 207.206 131.031 208.401 131.236C209.596 131.423 210.576 131.637 211.341 131.88C212.106 132.123 212.76 132.533 213.301 133.112C213.861 133.691 214.141 134.512 214.141 135.576C214.141 136.976 213.534 138.096 212.321 138.936C211.108 139.776 209.456 140.196 207.365 140.196Z" fill="#101828"/>
<path d="M96.9659 98.2273C95.9432 98.2273 95.0625 97.9858 94.3239 97.5028C93.5852 97.0199 93.017 96.3546 92.6193 95.5071C92.2216 94.6596 92.0227 93.6913 92.0227 92.6023C92.0227 91.4943 92.2263 90.5166 92.6335 89.669C93.0455 88.8168 93.6184 88.1515 94.3523 87.6733C95.0909 87.1903 95.9527 86.9489 96.9375 86.9489C97.7045 86.9489 98.3958 87.0909 99.0114 87.375C99.6269 87.6591 100.131 88.0568 100.524 88.5682C100.917 89.0795 101.161 89.6761 101.256 90.358H99.5795C99.4517 89.8608 99.1676 89.4205 98.7273 89.0369C98.2917 88.6487 97.7045 88.4545 96.9659 88.4545C96.3125 88.4545 95.7396 88.625 95.2472 88.9659C94.7595 89.3021 94.3783 89.7779 94.1037 90.3935C93.8338 91.0043 93.6989 91.7216 93.6989 92.5455C93.6989 93.3883 93.8314 94.1222 94.0966 94.7472C94.3665 95.3722 94.7453 95.8575 95.233 96.2031C95.7254 96.5488 96.303 96.7216 96.9659 96.7216C97.4015 96.7216 97.7969 96.6458 98.152 96.4943C98.5071 96.3428 98.8078 96.125 99.054 95.8409C99.3002 95.5568 99.4754 95.2159 99.5795 94.8182H101.256C101.161 95.4621 100.927 96.0421 100.553 96.5582C100.183 97.0696 99.6932 97.4768 99.0824 97.7798C98.4763 98.0781 97.7708 98.2273 96.9659 98.2273ZM108.28 98.2273C107.229 98.2273 106.322 97.9953 105.56 97.5312C104.802 97.0625 104.217 96.4091 103.805 95.571C103.398 94.7282 103.195 93.7481 103.195 92.6307C103.195 91.5133 103.398 90.5284 103.805 89.6761C104.217 88.8191 104.79 88.1515 105.524 87.6733C106.263 87.1903 107.125 86.9489 108.109 86.9489C108.678 86.9489 109.239 87.0436 109.793 87.233C110.347 87.4223 110.851 87.7301 111.305 88.1562C111.76 88.5777 112.122 89.1364 112.392 89.8324C112.662 90.5284 112.797 91.3854 112.797 92.4034V93.1136H104.388V91.6648H111.092C111.092 91.0492 110.969 90.5 110.723 90.017C110.482 89.5341 110.136 89.1529 109.686 88.8736C109.241 88.5942 108.715 88.4545 108.109 88.4545C107.442 88.4545 106.864 88.6203 106.376 88.9517C105.893 89.2784 105.522 89.7045 105.261 90.2301C105.001 90.7557 104.871 91.3191 104.871 91.9205V92.8864C104.871 93.7102 105.013 94.4086 105.297 94.9815C105.586 95.5497 105.986 95.983 106.497 96.2812C107.009 96.5748 107.603 96.7216 108.28 96.7216C108.72 96.7216 109.118 96.66 109.473 96.5369C109.833 96.4091 110.143 96.2197 110.403 95.9688C110.664 95.7131 110.865 95.3958 111.007 95.017L112.626 95.4716C112.456 96.0208 112.17 96.5038 111.767 96.9205C111.365 97.3324 110.867 97.6544 110.276 97.8864C109.684 98.1136 109.018 98.2273 108.28 98.2273ZM115.347 98V87.0909H116.966V88.7386H117.08C117.278 88.1989 117.638 87.7609 118.159 87.4247C118.68 87.0885 119.267 86.9205 119.92 86.9205C120.044 86.9205 120.197 86.9228 120.382 86.9276C120.567 86.9323 120.706 86.9394 120.801 86.9489V88.6534C120.744 88.6392 120.614 88.6179 120.411 88.5895C120.212 88.5563 120.001 88.5398 119.778 88.5398C119.248 88.5398 118.775 88.651 118.358 88.8736C117.946 89.0914 117.619 89.3944 117.378 89.7827C117.141 90.1662 117.023 90.6042 117.023 91.0966V98H115.347ZM128.216 87.0909V88.5114H122.562V87.0909H128.216ZM124.21 84.4773H125.886V94.875C125.886 95.3485 125.955 95.7036 126.092 95.9403C126.234 96.1723 126.414 96.3286 126.632 96.4091C126.855 96.4848 127.089 96.5227 127.335 96.5227C127.52 96.5227 127.671 96.5133 127.79 96.4943C127.908 96.4706 128.003 96.4517 128.074 96.4375L128.415 97.9432C128.301 97.9858 128.143 98.0284 127.939 98.071C127.735 98.1184 127.477 98.142 127.165 98.142C126.691 98.142 126.227 98.0402 125.773 97.8366C125.323 97.633 124.949 97.3229 124.651 96.9062C124.357 96.4896 124.21 95.964 124.21 95.3295V84.4773ZM130.737 98V87.0909H132.413V98H130.737ZM131.589 85.2727C131.263 85.2727 130.981 85.1615 130.744 84.9389C130.512 84.7164 130.396 84.4489 130.396 84.1364C130.396 83.8239 130.512 83.5563 130.744 83.3338C130.981 83.1113 131.263 83 131.589 83C131.916 83 132.196 83.1113 132.428 83.3338C132.664 83.5563 132.783 83.8239 132.783 84.1364C132.783 84.4489 132.664 84.7164 132.428 84.9389C132.196 85.1615 131.916 85.2727 131.589 85.2727ZM140.341 87.0909V88.5114H134.461V87.0909H140.341ZM136.222 98V85.5852C136.222 84.9602 136.369 84.4394 136.662 84.0227C136.956 83.6061 137.337 83.2936 137.806 83.0852C138.275 82.8769 138.769 82.7727 139.29 82.7727C139.702 82.7727 140.038 82.8059 140.299 82.8722C140.559 82.9384 140.753 83 140.881 83.0568L140.398 84.5057C140.313 84.4773 140.194 84.4418 140.043 84.3991C139.896 84.3565 139.702 84.3352 139.461 84.3352C138.907 84.3352 138.507 84.4749 138.26 84.7543C138.019 85.0336 137.898 85.4432 137.898 85.983V98H136.222ZM142.69 98V87.0909H144.366V98H142.69ZM143.543 85.2727C143.216 85.2727 142.934 85.1615 142.697 84.9389C142.465 84.7164 142.349 84.4489 142.349 84.1364C142.349 83.8239 142.465 83.5563 142.697 83.3338C142.934 83.1113 143.216 83 143.543 83C143.869 83 144.149 83.1113 144.381 83.3338C144.617 83.5563 144.736 83.8239 144.736 84.1364C144.736 84.4489 144.617 84.7164 144.381 84.9389C144.149 85.1615 143.869 85.2727 143.543 85.2727ZM152.01 98.2273C150.959 98.2273 150.052 97.9953 149.29 97.5312C148.533 97.0625 147.948 96.4091 147.536 95.571C147.129 94.7282 146.925 93.7481 146.925 92.6307C146.925 91.5133 147.129 90.5284 147.536 89.6761C147.948 88.8191 148.521 88.1515 149.255 87.6733C149.993 87.1903 150.855 86.9489 151.84 86.9489C152.408 86.9489 152.969 87.0436 153.523 87.233C154.077 87.4223 154.581 87.7301 155.036 88.1562C155.49 88.5777 155.853 89.1364 156.123 89.8324C156.392 90.5284 156.527 91.3854 156.527 92.4034V93.1136H148.118V91.6648H154.823C154.823 91.0492 154.7 90.5 154.453 90.017C154.212 89.5341 153.866 89.1529 153.417 88.8736C152.971 88.5942 152.446 88.4545 151.84 88.4545C151.172 88.4545 150.595 88.6203 150.107 88.9517C149.624 89.2784 149.252 89.7045 148.992 90.2301C148.731 90.7557 148.601 91.3191 148.601 91.9205V92.8864C148.601 93.7102 148.743 94.4086 149.027 94.9815C149.316 95.5497 149.716 95.983 150.228 96.2812C150.739 96.5748 151.333 96.7216 152.01 96.7216C152.451 96.7216 152.848 96.66 153.203 96.5369C153.563 96.4091 153.873 96.2197 154.134 95.9688C154.394 95.7131 154.596 95.3958 154.738 95.017L156.357 95.4716C156.186 96.0208 155.9 96.5038 155.498 96.9205C155.095 97.3324 154.598 97.6544 154.006 97.8864C153.414 98.1136 152.749 98.2273 152.01 98.2273ZM163.196 98.2273C162.287 98.2273 161.485 97.9976 160.789 97.5384C160.093 97.0743 159.548 96.4209 159.155 95.5781C158.762 94.7306 158.566 93.7292 158.566 92.5739C158.566 91.428 158.762 90.4337 159.155 89.5909C159.548 88.7481 160.095 88.0971 160.796 87.6378C161.497 87.1785 162.306 86.9489 163.225 86.9489C163.935 86.9489 164.496 87.0672 164.908 87.304C165.325 87.536 165.642 87.8011 165.86 88.0994C166.082 88.393 166.255 88.6345 166.378 88.8239H166.52V83.4545H168.196V98H166.577V96.3239H166.378C166.255 96.5227 166.08 96.7737 165.853 97.0767C165.625 97.375 165.301 97.6425 164.88 97.8793C164.458 98.1113 163.897 98.2273 163.196 98.2273ZM163.424 96.7216C164.096 96.7216 164.664 96.5464 165.128 96.196C165.592 95.8409 165.945 95.3509 166.186 94.7259C166.428 94.0961 166.549 93.3693 166.549 92.5455C166.549 91.7311 166.43 91.0185 166.194 90.4077C165.957 89.7921 165.606 89.3139 165.142 88.973C164.678 88.6274 164.105 88.4545 163.424 88.4545C162.713 88.4545 162.122 88.6368 161.648 89.0014C161.179 89.3613 160.827 89.8513 160.59 90.4716C160.358 91.0871 160.242 91.7784 160.242 92.5455C160.242 93.322 160.36 94.0275 160.597 94.6619C160.838 95.2917 161.194 95.7936 161.662 96.1676C162.136 96.5369 162.723 96.7216 163.424 96.7216Z" fill="#101828"/>
</svg>
