<svg width="658" height="96" viewBox="0 0 658 96" fill="none" xmlns="http://www.w3.org/2000/svg">
<mask id="path-1-outside-1_25_1862" maskUnits="userSpaceOnUse" x="-5" y="-4.7373" width="675" height="105" fill="black">
<rect fill="white" x="-5" y="-4.7373" width="675" height="105"/>
<path d="M0.24147 95.2627V63.9789L35.7417 69.1476V75.9484H104.566V63.9789L0.24147 47.521V0.05126H140.066V33.1032L104.566 27.6626V19.3656H35.7417V32.2871L140.066 48.7451V95.2627H0.24147ZM152.309 76.4924V55.1379L172.575 51.7375V0.05126H313.896V49.2892L208.075 67.1073V95.2627H172.575V73.092L152.309 76.4924ZM208.075 45.7527L278.396 33.9193V19.3656H208.075V45.7527ZM335.665 95.2627V0.05126H476.986V95.2627H335.665ZM371.165 75.9484H441.486V19.3656H371.165V75.9484ZM490.623 74.0441V52.9616L510.889 49.5612V0.05126H652.21V46.8409L611.133 53.7777L657.787 95.2627H608.685L569.92 60.7145L546.39 64.659V95.2627H510.889V70.6437L490.623 74.0441ZM546.39 43.3045L616.71 31.471V19.3656H546.39V43.3045Z"/>
</mask>
<path d="M0.24147 95.2627H-4.29241V99.7966H0.24147V95.2627ZM0.24147 63.9789L0.894688 59.4924L-4.29241 58.7372V63.9789H0.24147ZM35.7417 69.1476H40.2756V65.226L36.395 64.661L35.7417 69.1476ZM35.7417 75.9484H31.2079V80.4823H35.7417V75.9484ZM104.566 75.9484V80.4823H109.1V75.9484H104.566ZM104.566 63.9789H109.1V60.1042L105.273 59.5005L104.566 63.9789ZM0.24147 47.521H-4.29241V51.3957L-0.465046 51.9995L0.24147 47.521ZM0.24147 0.0512581V-4.48262H-4.29241V0.0512581H0.24147ZM140.066 0.0512581H144.6V-4.48262H140.066V0.0512581ZM140.066 33.1032L139.379 37.5848L144.6 38.3849V33.1032H140.066ZM104.566 27.6626H100.032V31.5545L103.879 32.1441L104.566 27.6626ZM104.566 19.3656H109.1V14.8317H104.566V19.3656ZM35.7417 19.3656V14.8317H31.2079V19.3656H35.7417ZM35.7417 32.2871H31.2079V36.1618L35.0352 36.7656L35.7417 32.2871ZM140.066 48.7451H144.6V44.8704L140.773 44.2666L140.066 48.7451ZM140.066 95.2627V99.7966H144.6V95.2627H140.066ZM4.77535 95.2627V63.9789H-4.29241V95.2627H4.77535ZM-0.411748 68.4655L35.0885 73.6341L36.395 64.661L0.894688 59.4924L-0.411748 68.4655ZM31.2079 69.1476V75.9484H40.2756V69.1476H31.2079ZM35.7417 80.4823H104.566V71.4145H35.7417V80.4823ZM109.1 75.9484V63.9789H100.032V75.9484H109.1ZM105.273 59.5005L0.947986 43.0425L-0.465046 51.9995L103.859 68.4574L105.273 59.5005ZM4.77535 47.521V0.0512581H-4.29241V47.521H4.77535ZM0.24147 4.58514H140.066V-4.48262H0.24147V4.58514ZM135.532 0.0512581V33.1032H144.6V0.0512581H135.532ZM140.753 28.6217L105.253 23.181L103.879 32.1441L139.379 37.5848L140.753 28.6217ZM109.1 27.6626V19.3656H100.032V27.6626H109.1ZM104.566 14.8317H35.7417V23.8995H104.566V14.8317ZM31.2079 19.3656V32.2871H40.2756V19.3656H31.2079ZM35.0352 36.7656L139.36 53.2236L140.773 44.2666L36.4482 27.8086L35.0352 36.7656ZM135.532 48.7451V95.2627H144.6V48.7451H135.532ZM140.066 90.7288H0.24147V99.7966H140.066V90.7288ZM152.309 76.4924H147.775V81.8504L153.059 80.9638L152.309 76.4924ZM152.309 55.1379L151.559 50.6665L147.775 51.3013V55.1379H152.309ZM172.575 51.7375L173.325 56.2088L177.109 55.574V51.7375H172.575ZM172.575 0.0512581V-4.48262H168.041V0.0512581H172.575ZM313.896 0.0512581H318.43V-4.48262H313.896V0.0512581ZM313.896 49.2892L314.649 53.7601L318.43 53.1235V49.2892H313.896ZM208.075 67.1073L207.323 62.6364L203.542 63.273V67.1073H208.075ZM208.075 95.2627V99.7966H212.609V95.2627H208.075ZM172.575 95.2627H168.041V99.7966H172.575V95.2627ZM172.575 73.092H177.109V67.7341L171.825 68.6207L172.575 73.092ZM208.075 45.7527H203.542V51.1133L208.828 50.2238L208.075 45.7527ZM278.396 33.9193L279.148 38.3903L282.93 37.754V33.9193H278.396ZM278.396 19.3656H282.93V14.8317H278.396V19.3656ZM208.075 19.3656V14.8317H203.542V19.3656H208.075ZM156.843 76.4924V55.1379H147.775V76.4924H156.843ZM153.059 59.6093L173.325 56.2088L171.825 47.2661L151.559 50.6665L153.059 59.6093ZM177.109 51.7375V0.0512581H168.041V51.7375H177.109ZM172.575 4.58514H313.896V-4.48262H172.575V4.58514ZM309.362 0.0512581V49.2892H318.43V0.0512581H309.362ZM313.143 44.8182L207.323 62.6364L208.828 71.5783L314.649 53.7601L313.143 44.8182ZM203.542 67.1073V95.2627H212.609V67.1073H203.542ZM208.075 90.7288H172.575V99.7966H208.075V90.7288ZM177.109 95.2627V73.092H168.041V95.2627H177.109ZM171.825 68.6207L151.559 72.0211L153.059 80.9638L173.325 77.5634L171.825 68.6207ZM208.828 50.2238L279.148 38.3903L277.644 29.4483L207.323 41.2817L208.828 50.2238ZM282.93 33.9193V19.3656H273.862V33.9193H282.93ZM278.396 14.8317H208.075V23.8995H278.396V14.8317ZM203.542 19.3656V45.7527H212.609V19.3656H203.542ZM335.665 95.2627H331.131V99.7966H335.665V95.2627ZM335.665 0.0512581V-4.48262H331.131V0.0512581H335.665ZM476.986 0.0512581H481.52V-4.48262H476.986V0.0512581ZM476.986 95.2627V99.7966H481.52V95.2627H476.986ZM371.165 75.9484H366.632V80.4823H371.165V75.9484ZM441.486 75.9484V80.4823H446.02V75.9484H441.486ZM441.486 19.3656H446.02V14.8317H441.486V19.3656ZM371.165 19.3656V14.8317H366.632V19.3656H371.165ZM340.199 95.2627V0.0512581H331.131V95.2627H340.199ZM335.665 4.58514H476.986V-4.48262H335.665V4.58514ZM472.452 0.0512581V95.2627H481.52V0.0512581H472.452ZM476.986 90.7288H335.665V99.7966H476.986V90.7288ZM371.165 80.4823H441.486V71.4145H371.165V80.4823ZM446.02 75.9484V19.3656H436.952V75.9484H446.02ZM441.486 14.8317H371.165V23.8995H441.486V14.8317ZM366.632 19.3656V75.9484H375.699V19.3656H366.632ZM490.623 74.0442H486.089V79.4021L491.373 78.5155L490.623 74.0442ZM490.623 52.9616L489.873 48.4902L486.089 49.1251V52.9616H490.623ZM510.889 49.5612L511.64 54.0326L515.423 53.3977V49.5612H510.889ZM510.889 0.0512581V-4.48262H506.355V0.0512581H510.889ZM652.21 0.0512581H656.744V-4.48262H652.21V0.0512581ZM652.21 46.8409L652.965 51.3115L656.744 50.6733V46.8409H652.21ZM611.133 53.7777L610.378 49.3071L601.054 50.8818L608.121 57.1658L611.133 53.7777ZM657.787 95.2627V99.7966H669.709L660.8 91.8746L657.787 95.2627ZM608.685 95.2627L605.668 98.6474L606.958 99.7966H608.685V95.2627ZM569.92 60.7145L572.937 57.3298L571.314 55.8837L569.171 56.2431L569.92 60.7145ZM546.39 64.659L545.64 60.1875L541.856 60.8219V64.659H546.39ZM546.39 95.2627V99.7966H550.923V95.2627H546.39ZM510.889 95.2627H506.355V99.7966H510.889V95.2627ZM510.889 70.6437H515.423V65.2858L510.139 66.1724L510.889 70.6437ZM546.39 43.3045H541.856V48.665L547.142 47.7755L546.39 43.3045ZM616.71 31.471L617.462 35.9421L621.244 35.3057V31.471H616.71ZM616.71 19.3656H621.244V14.8317H616.71V19.3656ZM546.39 19.3656V14.8317H541.856V19.3656H546.39ZM495.157 74.0442V52.9616H486.089V74.0442H495.157ZM491.373 57.433L511.64 54.0326L510.139 45.0898L489.873 48.4902L491.373 57.433ZM515.423 49.5612V0.0512581H506.355V49.5612H515.423ZM510.889 4.58514H652.21V-4.48262H510.889V4.58514ZM647.676 0.0512581V46.8409H656.744V0.0512581H647.676ZM651.455 42.3703L610.378 49.3071L611.888 58.2483L652.965 51.3115L651.455 42.3703ZM608.121 57.1658L654.774 98.6508L660.8 91.8746L614.146 50.3896L608.121 57.1658ZM657.787 90.7288H608.685V99.7966H657.787V90.7288ZM611.702 91.878L572.937 57.3298L566.904 64.0993L605.668 98.6474L611.702 91.878ZM569.171 56.2431L545.64 60.1875L547.139 69.1305L570.67 65.186L569.171 56.2431ZM541.856 64.659V95.2627H550.923V64.659H541.856ZM546.39 90.7288H510.889V99.7966H546.39V90.7288ZM515.423 95.2627V70.6437H506.355V95.2627H515.423ZM510.139 66.1724L489.873 69.5728L491.373 78.5155L511.64 75.1151L510.139 66.1724ZM547.142 47.7755L617.462 35.9421L615.958 27L545.637 38.8334L547.142 47.7755ZM621.244 31.471V19.3656H612.176V31.471H621.244ZM616.71 14.8317H546.39V23.8995H616.71V14.8317ZM541.856 19.3656V43.3045H550.923V19.3656H541.856Z" fill="white" mask="url(#path-1-outside-1_25_1862)"/>
</svg>
