<svg width="659" height="96" viewBox="0 0 659 96" fill="none" xmlns="http://www.w3.org/2000/svg">
<mask id="path-1-outside-1_25_1872" maskUnits="userSpaceOnUse" x="-5" y="-4.7373" width="669" height="105" fill="black">
<rect fill="white" x="-5" y="-4.7373" width="669" height="105"/>
<path d="M0.08049 38.1358V0.05126H152.283V38.1358L116.783 33.2392V19.3656H93.9318V95.2627H58.4315V19.3656H35.5808V33.2392L0.08049 38.1358ZM156.324 19.3656V0.05126H318.047V35.1435L282.547 30.2469V19.3656H212.227V37.9998H270.034V57.3141H212.227V75.9484H282.547V65.0671L318.047 60.1705V95.2627H176.726V19.3656H156.324ZM328.868 19.3656V0.05126H490.455V33.7833L454.955 28.8867V19.3656H384.635V75.9484H454.955V63.0268H426.256V43.7125H490.455V95.2627H349.135V19.3656H328.868ZM517.67 95.2627V0.05126H658.991V95.2627H517.67ZM553.171 75.9484H623.491V19.3656H553.171V75.9484Z"/>
</mask>
<path d="M0.0804901 38.1358H-4.45339V43.338L0.699987 42.6272L0.0804901 38.1358ZM0.0804901 0.0512581V-4.48262H-4.45339V0.0512581H0.0804901ZM152.283 0.0512581H156.817V-4.48262H152.283V0.0512581ZM152.283 38.1358L151.663 42.6272L156.817 43.338V38.1358H152.283ZM116.783 33.2392H112.249V37.1907L116.163 37.7306L116.783 33.2392ZM116.783 19.3656H121.316V14.8317H116.783V19.3656ZM93.9318 19.3656V14.8317H89.3979V19.3656H93.9318ZM93.9318 95.2627V99.7966H98.4656V95.2627H93.9318ZM58.4315 95.2627H53.8976V99.7966H58.4315V95.2627ZM58.4315 19.3656H62.9654V14.8317H58.4315V19.3656ZM35.5808 19.3656V14.8317H31.0469V19.3656H35.5808ZM35.5808 33.2392L36.2002 37.7306L40.1146 37.1907V33.2392H35.5808ZM4.61437 38.1358V0.0512581H-4.45339V38.1358H4.61437ZM0.0804901 4.58514H152.283V-4.48262H0.0804901V4.58514ZM147.749 0.0512581V38.1358H156.817V0.0512581H147.749ZM152.902 33.6445L117.402 28.7479L116.163 37.7306L151.663 42.6272L152.902 33.6445ZM121.316 33.2392V19.3656H112.249V33.2392H121.316ZM116.783 14.8317H93.9318V23.8995H116.783V14.8317ZM89.3979 19.3656V95.2627H98.4656V19.3656H89.3979ZM93.9318 90.7288H58.4315V99.7966H93.9318V90.7288ZM62.9654 95.2627V19.3656H53.8976V95.2627H62.9654ZM58.4315 14.8317H35.5808V23.8995H58.4315V14.8317ZM31.0469 19.3656V33.2392H40.1146V19.3656H31.0469ZM34.9613 28.7479L-0.539007 33.6445L0.699987 42.6272L36.2002 37.7306L34.9613 28.7479ZM156.324 19.3656H151.79V23.8995H156.324V19.3656ZM156.324 0.0512581V-4.48262H151.79V0.0512581H156.324ZM318.047 0.0512581H322.581V-4.48262H318.047V0.0512581ZM318.047 35.1435L317.428 39.6348L322.581 40.3456V35.1435H318.047ZM282.547 30.2469H278.013V34.1983L281.928 34.7382L282.547 30.2469ZM282.547 19.3656H287.081V14.8317H282.547V19.3656ZM212.227 19.3656V14.8317H207.693V19.3656H212.227ZM212.227 37.9998H207.693V42.5337H212.227V37.9998ZM270.034 37.9998H274.567V33.4659H270.034V37.9998ZM270.034 57.3141V61.848H274.567V57.3141H270.034ZM212.227 57.3141V52.7803H207.693V57.3141H212.227ZM212.227 75.9484H207.693V80.4823H212.227V75.9484ZM282.547 75.9484V80.4823H287.081V75.9484H282.547ZM282.547 65.0671L281.928 60.5757L278.013 61.1156V65.0671H282.547ZM318.047 60.1705H322.581V54.9683L317.428 55.6791L318.047 60.1705ZM318.047 95.2627V99.7966H322.581V95.2627H318.047ZM176.726 95.2627H172.193V99.7966H176.726V95.2627ZM176.726 19.3656H181.26V14.8317H176.726V19.3656ZM160.858 19.3656V0.0512581H151.79V19.3656H160.858ZM156.324 4.58514H318.047V-4.48262H156.324V4.58514ZM313.513 0.0512581V35.1435H322.581V0.0512581H313.513ZM318.667 30.6521L283.167 25.7555L281.928 34.7382L317.428 39.6348L318.667 30.6521ZM287.081 30.2469V19.3656H278.013V30.2469H287.081ZM282.547 14.8317H212.227V23.8995H282.547V14.8317ZM207.693 19.3656V37.9998H216.761V19.3656H207.693ZM212.227 42.5337H270.034V33.4659H212.227V42.5337ZM265.5 37.9998V57.3141H274.567V37.9998H265.5ZM270.034 52.7803H212.227V61.848H270.034V52.7803ZM207.693 57.3141V75.9484H216.761V57.3141H207.693ZM212.227 80.4823H282.547V71.4145H212.227V80.4823ZM287.081 75.9484V65.0671H278.013V75.9484H287.081ZM283.167 69.5584L318.667 64.6618L317.428 55.6791L281.928 60.5757L283.167 69.5584ZM313.513 60.1705V95.2627H322.581V60.1705H313.513ZM318.047 90.7288H176.726V99.7966H318.047V90.7288ZM181.26 95.2627V19.3656H172.193V95.2627H181.26ZM176.726 14.8317H156.324V23.8995H176.726V14.8317ZM328.868 19.3656H324.334V23.8995H328.868V19.3656ZM328.868 0.0512581V-4.48262H324.334V0.0512581H328.868ZM490.455 0.0512581H494.989V-4.48262H490.455V0.0512581ZM490.455 33.7833L489.836 38.2747L494.989 38.9855V33.7833H490.455ZM454.955 28.8867H450.421V32.8382L454.336 33.3781L454.955 28.8867ZM454.955 19.3656H459.489V14.8317H454.955V19.3656ZM384.635 19.3656V14.8317H380.101V19.3656H384.635ZM384.635 75.9484H380.101V80.4823H384.635V75.9484ZM454.955 75.9484V80.4823H459.489V75.9484H454.955ZM454.955 63.0268H459.489V58.4929H454.955V63.0268ZM426.256 63.0268H421.722V67.5607H426.256V63.0268ZM426.256 43.7125V39.1786H421.722V43.7125H426.256ZM490.455 43.7125H494.989V39.1786H490.455V43.7125ZM490.455 95.2627V99.7966H494.989V95.2627H490.455ZM349.134 95.2627H344.601V99.7966H349.134V95.2627ZM349.134 19.3656H353.668V14.8317H349.134V19.3656ZM333.402 19.3656V0.0512581H324.334V19.3656H333.402ZM328.868 4.58514H490.455V-4.48262H328.868V4.58514ZM485.922 0.0512581V33.7833H494.989V0.0512581H485.922ZM491.075 29.292L455.575 24.3954L454.336 33.3781L489.836 38.2747L491.075 29.292ZM459.489 28.8867V19.3656H450.421V28.8867H459.489ZM454.955 14.8317H384.635V23.8995H454.955V14.8317ZM380.101 19.3656V75.9484H389.169V19.3656H380.101ZM384.635 80.4823H454.955V71.4145H384.635V80.4823ZM459.489 75.9484V63.0268H450.421V75.9484H459.489ZM454.955 58.4929H426.256V67.5607H454.955V58.4929ZM430.79 63.0268V43.7125H421.722V63.0268H430.79ZM426.256 48.2464H490.455V39.1786H426.256V48.2464ZM485.922 43.7125V95.2627H494.989V43.7125H485.922ZM490.455 90.7288H349.134V99.7966H490.455V90.7288ZM353.668 95.2627V19.3656H344.601V95.2627H353.668ZM349.134 14.8317H328.868V23.8995H349.134V14.8317ZM517.67 95.2627H513.137V99.7966H517.67V95.2627ZM517.67 0.0512581V-4.48262H513.137V0.0512581H517.67ZM658.991 0.0512581H663.525V-4.48262H658.991V0.0512581ZM658.991 95.2627V99.7966H663.525V95.2627H658.991ZM553.171 75.9484H548.637V80.4823H553.171V75.9484ZM623.491 75.9484V80.4823H628.025V75.9484H623.491ZM623.491 19.3656H628.025V14.8317H623.491V19.3656ZM553.171 19.3656V14.8317H548.637V19.3656H553.171ZM522.204 95.2627V0.0512581H513.137V95.2627H522.204ZM517.67 4.58514H658.991V-4.48262H517.67V4.58514ZM654.458 0.0512581V95.2627H663.525V0.0512581H654.458ZM658.991 90.7288H517.67V99.7966H658.991V90.7288ZM553.171 80.4823H623.491V71.4145H553.171V80.4823ZM628.025 75.9484V19.3656H618.957V75.9484H628.025ZM623.491 14.8317H553.171V23.8995H623.491V14.8317ZM548.637 19.3656V75.9484H557.705V19.3656H548.637Z" fill="white" mask="url(#path-1-outside-1_25_1872)"/>
</svg>
