<svg width="117" height="40" viewBox="0 0 117 40" fill="none" xmlns="http://www.w3.org/2000/svg">
<g clip-path="url(#clip0_74_3369)">
<path fill-rule="evenodd" clip-rule="evenodd" d="M18.7999 0H10L9.18796 3.24817C12.3783 3.91265 15.788 4.45522 18.7999 4.57517V0ZM8.61807 5.52771L5.30002 18.7999H18.7999V6.97517C15.6079 6.84804 11.9691 6.24624 8.61807 5.52771ZM4.70003 21.1999L0.951756 36.193C5.2327 34.9768 12.8043 33.0634 18.7999 32.8246V21.1999H4.70003ZM0.305397 38.7784L0 40H18.7999V35.2246C12.4895 35.476 4.43331 37.5824 0.305397 38.7784ZM21.1999 40H40L39.6946 38.7785C35.5668 37.5825 27.5104 35.476 21.1999 35.2246V40ZM39.0483 36.193L35.3 21.1999H21.1999V32.8246C27.1956 33.0634 34.7674 34.9769 39.0483 36.193ZM34.7 18.7999L31.3819 5.52767C28.0308 6.24622 24.392 6.84804 21.1999 6.97517V18.7999H34.7ZM30.812 3.24813C27.6216 3.91263 24.2119 4.45521 21.1999 4.57517V0H30L30.812 3.24813Z" fill="#7F56D9"/>
<path fill-rule="evenodd" clip-rule="evenodd" d="M18.7014 22C10.6128 22.4786 3.81743 27.7644 1.13227 35.0405L0.852984 36.1577C5.13387 34.9415 12.7057 33.028 18.7014 32.7892V22ZM0.206624 38.7431L0.0887714 39.2145C0.0545829 39.4631 0.0249633 39.7132 0 39.9646H18.7014V35.1892C12.3909 35.4406 4.33444 37.5471 0.206624 38.7431ZM21.1014 39.9646H39.8025C39.7775 39.7132 39.7479 39.4631 39.7137 39.2145L39.5958 38.743C35.4679 37.547 27.4118 35.4406 21.1014 35.1892V39.9646ZM38.9495 36.1576C34.6685 34.9414 27.097 33.028 21.1014 32.7892V22C29.1899 22.4788 35.9851 27.7645 38.6702 35.0405L38.9495 36.1576Z" fill="#603CB0"/>
</g>
<path d="M45.4748 15V11.78L49.1288 12.312V13.012H56.2128V11.78L45.4748 10.086V5.2H59.8668V8.602L56.2128 8.042V7.188H49.1288V8.518L59.8668 10.212V15H45.4748ZM61.127 9.4V7.58H65.397L66.097 8.28L66.797 7.58H75.407V14.16L66.377 15.28V17.38H62.877V9.4H61.127ZM66.377 13.53L71.907 12.83V9.4H66.377V13.53ZM77.9319 15V7.58H90.6019V15H77.9319ZM81.4319 13.18H87.1019V9.4H81.4319V13.18ZM91.8613 9.4V7.58H96.1173L96.8313 8.28L97.5313 7.58H104.601V10.66L101.101 10.31V9.4H97.1113V15H93.6113V9.4H91.8613ZM105.027 9.4V7.58H106.777V5.2H110.277V7.58H113.707V9.4H110.277V12.76L111.117 13.18H116.507V15H110.207L106.777 13.32V9.4H105.027ZM56.499 25.188V23.2H73.145V26.812L69.491 26.308V25.188H62.253V27.106H68.203V29.094H62.253V31.012H69.491V29.892L73.145 29.388V33H58.599V25.188H56.499ZM75.5188 32.58L79.0188 32.93V33.56H84.5488V32.58L75.5188 31.46V25.58H84.1288L84.8288 26.28L85.5428 25.58H88.0488V35.38H75.5188V32.58ZM79.0188 30.13L84.5488 30.83V27.4H79.0188V30.13ZM90.5715 33V25.58H103.242V33H90.5715ZM94.0715 31.18H99.7415V27.4H94.0715V31.18Z" fill="white"/>
<defs>
<clipPath id="clip0_74_3369">
<rect width="40" height="40" fill="white"/>
</clipPath>
</defs>
</svg>
