<svg width="117" height="40" viewBox="0 0 117 40" fill="none" xmlns="http://www.w3.org/2000/svg">
<g clip-path="url(#clip0_111_2343)">
<path fill-rule="evenodd" clip-rule="evenodd" d="M18.8 0H10L9.18794 3.24824C12.3784 3.91273 15.788 4.45531 18.8 4.57527V0ZM8.61805 5.52779L5.3 18.8H18.8V6.97527C15.6079 6.84814 11.9691 6.24633 8.61805 5.52779ZM4.7 21.2L0.951722 36.1931C5.23264 34.977 12.8043 33.0635 18.8 32.8247V21.2H4.7ZM0.305362 38.7785L0 40H18.8V35.2247C12.4895 35.4761 4.43323 37.5825 0.305362 38.7785ZM21.2 40H40L39.6946 38.7785C35.5668 37.5825 27.5105 35.4761 21.2 35.2247V40ZM39.0483 36.1931L35.3 21.2H21.2V32.8247C27.1957 33.0635 34.7674 34.977 39.0483 36.1931ZM34.7 18.8L31.3819 5.52779C28.0309 6.24633 24.3921 6.84814 21.2 6.97527V18.8H34.7ZM30.8121 3.24824C27.6216 3.91273 24.212 4.45531 21.2 4.57527V0H30L30.8121 3.24824Z" fill="#7F56D9"/>
<path fill-rule="evenodd" clip-rule="evenodd" d="M18.7012 22C10.6126 22.4787 3.8174 27.7645 1.13227 35.0405L0.852978 36.1577C5.13391 34.9416 12.7055 33.0281 18.7012 32.7893V22ZM0.206618 38.7431L0.0887714 39.2145C0.0545829 39.4631 0.0249633 39.7132 0 39.9646H18.7012V35.1893C12.3908 35.4406 4.33452 37.5471 0.206618 38.7431ZM21.1012 39.9646H39.8025C39.7775 39.7132 39.7479 39.4631 39.7137 39.2145L39.5959 38.7432C35.468 37.5472 27.4117 35.4407 21.1012 35.1893V39.9646ZM38.9495 36.1577C34.6686 34.9416 27.0969 33.0281 21.1012 32.7893V22C29.1898 22.4786 35.9851 27.7644 38.6702 35.0405L38.9495 36.1577Z" fill="#603CB0"/>
</g>
<path d="M45.4748 15V11.78L49.1288 12.312V13.012H56.2128V11.78L45.4748 10.086V5.2H59.8668V8.602L56.2128 8.042V7.188H49.1288V8.518L59.8668 10.212V15H45.4748ZM61.127 9.4V7.58H65.397L66.097 8.28L66.797 7.58H75.407V14.16L66.377 15.28V17.38H62.877V9.4H61.127ZM66.377 13.53L71.907 12.83V9.4H66.377V13.53ZM77.9319 15V7.58H90.6019V15H77.9319ZM81.4319 13.18H87.1019V9.4H81.4319V13.18ZM91.8613 9.4V7.58H96.1173L96.8313 8.28L97.5313 7.58H104.601V10.66L101.101 10.31V9.4H97.1113V15H93.6113V9.4H91.8613ZM105.027 9.4V7.58H106.777V5.2H110.277V7.58H113.707V9.4H110.277V12.76L111.117 13.18H116.507V15H110.207L106.777 13.32V9.4H105.027ZM56.499 25.188V23.2H73.145V26.812L69.491 26.308V25.188H62.253V27.106H68.203V29.094H62.253V31.012H69.491V29.892L73.145 29.388V33H58.599V25.188H56.499ZM75.5188 32.58L79.0188 32.93V33.56H84.5488V32.58L75.5188 31.46V25.58H84.1288L84.8288 26.28L85.5428 25.58H88.0488V35.38H75.5188V32.58ZM79.0188 30.13L84.5488 30.83V27.4H79.0188V30.13ZM90.5715 33V25.58H103.242V33H90.5715ZM94.0715 31.18H99.7415V27.4H94.0715V31.18Z" fill="#344054"/>
<path d="M45.4748 15V11.78L49.1288 12.312V13.012H56.2128V11.78L45.4748 10.086V5.2H59.8668V8.602L56.2128 8.042V7.188H49.1288V8.518L59.8668 10.212V15H45.4748ZM61.127 9.4V7.58H65.397L66.097 8.28L66.797 7.58H75.407V14.16L66.377 15.28V17.38H62.877V9.4H61.127ZM66.377 13.53L71.907 12.83V9.4H66.377V13.53ZM77.9319 15V7.58H90.6019V15H77.9319ZM81.4319 13.18H87.1019V9.4H81.4319V13.18ZM91.8613 9.4V7.58H96.1173L96.8313 8.28L97.5313 7.58H104.601V10.66L101.101 10.31V9.4H97.1113V15H93.6113V9.4H91.8613ZM105.027 9.4V7.58H106.777V5.2H110.277V7.58H113.707V9.4H110.277V12.76L111.117 13.18H116.507V15H110.207L106.777 13.32V9.4H105.027ZM56.499 25.188V23.2H73.145V26.812L69.491 26.308V25.188H62.253V27.106H68.203V29.094H62.253V31.012H69.491V29.892L73.145 29.388V33H58.599V25.188H56.499ZM75.5188 32.58L79.0188 32.93V33.56H84.5488V32.58L75.5188 31.46V25.58H84.1288L84.8288 26.28L85.5428 25.58H88.0488V35.38H75.5188V32.58ZM79.0188 30.13L84.5488 30.83V27.4H79.0188V30.13ZM90.5715 33V25.58H103.242V33H90.5715ZM94.0715 31.18H99.7415V27.4H94.0715V31.18Z" fill="black" fill-opacity="0.2"/>
<path d="M45.4748 15V11.78L49.1288 12.312V13.012H56.2128V11.78L45.4748 10.086V5.2H59.8668V8.602L56.2128 8.042V7.188H49.1288V8.518L59.8668 10.212V15H45.4748ZM61.127 9.4V7.58H65.397L66.097 8.28L66.797 7.58H75.407V14.16L66.377 15.28V17.38H62.877V9.4H61.127ZM66.377 13.53L71.907 12.83V9.4H66.377V13.53ZM77.9319 15V7.58H90.6019V15H77.9319ZM81.4319 13.18H87.1019V9.4H81.4319V13.18ZM91.8613 9.4V7.58H96.1173L96.8313 8.28L97.5313 7.58H104.601V10.66L101.101 10.31V9.4H97.1113V15H93.6113V9.4H91.8613ZM105.027 9.4V7.58H106.777V5.2H110.277V7.58H113.707V9.4H110.277V12.76L111.117 13.18H116.507V15H110.207L106.777 13.32V9.4H105.027ZM56.499 25.188V23.2H73.145V26.812L69.491 26.308V25.188H62.253V27.106H68.203V29.094H62.253V31.012H69.491V29.892L73.145 29.388V33H58.599V25.188H56.499ZM75.5188 32.58L79.0188 32.93V33.56H84.5488V32.58L75.5188 31.46V25.58H84.1288L84.8288 26.28L85.5428 25.58H88.0488V35.38H75.5188V32.58ZM79.0188 30.13L84.5488 30.83V27.4H79.0188V30.13ZM90.5715 33V25.58H103.242V33H90.5715ZM94.0715 31.18H99.7415V27.4H94.0715V31.18Z" fill="black" fill-opacity="0.2"/>
<path d="M45.4748 15V11.78L49.1288 12.312V13.012H56.2128V11.78L45.4748 10.086V5.2H59.8668V8.602L56.2128 8.042V7.188H49.1288V8.518L59.8668 10.212V15H45.4748ZM61.127 9.4V7.58H65.397L66.097 8.28L66.797 7.58H75.407V14.16L66.377 15.28V17.38H62.877V9.4H61.127ZM66.377 13.53L71.907 12.83V9.4H66.377V13.53ZM77.9319 15V7.58H90.6019V15H77.9319ZM81.4319 13.18H87.1019V9.4H81.4319V13.18ZM91.8613 9.4V7.58H96.1173L96.8313 8.28L97.5313 7.58H104.601V10.66L101.101 10.31V9.4H97.1113V15H93.6113V9.4H91.8613ZM105.027 9.4V7.58H106.777V5.2H110.277V7.58H113.707V9.4H110.277V12.76L111.117 13.18H116.507V15H110.207L106.777 13.32V9.4H105.027ZM56.499 25.188V23.2H73.145V26.812L69.491 26.308V25.188H62.253V27.106H68.203V29.094H62.253V31.012H69.491V29.892L73.145 29.388V33H58.599V25.188H56.499ZM75.5188 32.58L79.0188 32.93V33.56H84.5488V32.58L75.5188 31.46V25.58H84.1288L84.8288 26.28L85.5428 25.58H88.0488V35.38H75.5188V32.58ZM79.0188 30.13L84.5488 30.83V27.4H79.0188V30.13ZM90.5715 33V25.58H103.242V33H90.5715ZM94.0715 31.18H99.7415V27.4H94.0715V31.18Z" fill="black" fill-opacity="0.2"/>
<path d="M45.4748 15V11.78L49.1288 12.312V13.012H56.2128V11.78L45.4748 10.086V5.2H59.8668V8.602L56.2128 8.042V7.188H49.1288V8.518L59.8668 10.212V15H45.4748ZM61.127 9.4V7.58H65.397L66.097 8.28L66.797 7.58H75.407V14.16L66.377 15.28V17.38H62.877V9.4H61.127ZM66.377 13.53L71.907 12.83V9.4H66.377V13.53ZM77.9319 15V7.58H90.6019V15H77.9319ZM81.4319 13.18H87.1019V9.4H81.4319V13.18ZM91.8613 9.4V7.58H96.1173L96.8313 8.28L97.5313 7.58H104.601V10.66L101.101 10.31V9.4H97.1113V15H93.6113V9.4H91.8613ZM105.027 9.4V7.58H106.777V5.2H110.277V7.58H113.707V9.4H110.277V12.76L111.117 13.18H116.507V15H110.207L106.777 13.32V9.4H105.027ZM56.499 25.188V23.2H73.145V26.812L69.491 26.308V25.188H62.253V27.106H68.203V29.094H62.253V31.012H69.491V29.892L73.145 29.388V33H58.599V25.188H56.499ZM75.5188 32.58L79.0188 32.93V33.56H84.5488V32.58L75.5188 31.46V25.58H84.1288L84.8288 26.28L85.5428 25.58H88.0488V35.38H75.5188V32.58ZM79.0188 30.13L84.5488 30.83V27.4H79.0188V30.13ZM90.5715 33V25.58H103.242V33H90.5715ZM94.0715 31.18H99.7415V27.4H94.0715V31.18Z" fill="black" fill-opacity="0.2"/>
<path d="M45.4748 15V11.78L49.1288 12.312V13.012H56.2128V11.78L45.4748 10.086V5.2H59.8668V8.602L56.2128 8.042V7.188H49.1288V8.518L59.8668 10.212V15H45.4748ZM61.127 9.4V7.58H65.397L66.097 8.28L66.797 7.58H75.407V14.16L66.377 15.28V17.38H62.877V9.4H61.127ZM66.377 13.53L71.907 12.83V9.4H66.377V13.53ZM77.9319 15V7.58H90.6019V15H77.9319ZM81.4319 13.18H87.1019V9.4H81.4319V13.18ZM91.8613 9.4V7.58H96.1173L96.8313 8.28L97.5313 7.58H104.601V10.66L101.101 10.31V9.4H97.1113V15H93.6113V9.4H91.8613ZM105.027 9.4V7.58H106.777V5.2H110.277V7.58H113.707V9.4H110.277V12.76L111.117 13.18H116.507V15H110.207L106.777 13.32V9.4H105.027ZM56.499 25.188V23.2H73.145V26.812L69.491 26.308V25.188H62.253V27.106H68.203V29.094H62.253V31.012H69.491V29.892L73.145 29.388V33H58.599V25.188H56.499ZM75.5188 32.58L79.0188 32.93V33.56H84.5488V32.58L75.5188 31.46V25.58H84.1288L84.8288 26.28L85.5428 25.58H88.0488V35.38H75.5188V32.58ZM79.0188 30.13L84.5488 30.83V27.4H79.0188V30.13ZM90.5715 33V25.58H103.242V33H90.5715ZM94.0715 31.18H99.7415V27.4H94.0715V31.18Z" fill="black" fill-opacity="0.2"/>
<defs>
<clipPath id="clip0_111_2343">
<rect width="40" height="40" fill="white"/>
</clipPath>
</defs>
</svg>
